<svg width="448" height="800" viewBox="0 0 448 800" fill="none" xmlns="http://www.w3.org/2000/svg">
<path d="M448 183.04V89.12C448 57.56 347.68 0 224 0C100.28 0 0 57.56 0 89.12V183.04C0 268.68 155.08 339.36 155.08 400C155.08 460.56 0 531.24 0 616.88V710.88C0 742.4 100.28 800 224 800C347.68 800 448 742.4 448 710.84V616.84C448 531.2 292.92 460.52 292.92 399.96C292.92 339.36 448 268.68 448 183.04ZM61.64 93.12C89.48 75.56 141.64 49.84 226.2 49.84C310.72 49.84 386.44 93.12 386.44 93.12C392.12 96.56 414.36 108.44 399.12 117.48C365.6 137.36 300 158.28 224 158.28C148 158.28 84.64 135.24 51.04 115.32C35.8 106.32 61.64 93.12 61.64 93.12ZM244.04 400C244.04 447.72 283.88 478.44 326.08 519.44C356.92 549.36 399.12 590.36 399.12 616.84V669.96C360.32 650.64 244.24 631.76 244.24 569.8C244.24 538.48 203.72 538.48 203.72 569.8C203.72 631.76 87.64 650.64 48.84 669.96V616.84C48.84 590.36 91.08 549.32 121.88 519.44C164.08 478.44 203.92 447.72 203.92 400C203.92 352.28 164.08 321.56 121.88 280.56C91.04 250.56 48.84 209.56 48.84 183.04L47 143.12C88.04 165.24 153.08 186.24 224 186.24C294.88 186.24 360.24 165.24 401.32 143.12L399.12 183.04C399.12 209.52 356.88 250.56 326.08 280.56C283.92 321.56 244.04 352.28 244.04 400Z" fill="black"/>
</svg>
