<svg width="348" height="337" viewBox="0 0 348 337" fill="none" xmlns="http://www.w3.org/2000/svg">
<path d="M218.5 153C260.75 153 295 118.75 295 76.5C295 34.2502 260.75 0 218.5 0C176.25 0 142 34.2502 142 76.5C142 118.75 176.25 153 218.5 153Z" fill="#E6C795"/>
<path d="M294.177 234.452C263.854 294.062 206.526 312.967 147.108 285.15C76.9149 298.625 24.2976 176.942 48.8375 115.121C73.3774 53.3003 83.3327 -4.1683 156.217 24.7633C229.102 53.695 289.504 150.848 294.177 234.452Z" fill="black"/>
<path d="M342.754 182.392L305.918 99.7914C305.917 99.7891 305.916 99.7869 305.915 99.7846L305.867 99.6772C305.744 99.4009 305.597 99.1414 305.434 98.8941C305.391 98.827 305.339 98.7666 305.293 98.7028C305.147 98.4992 304.991 98.3079 304.822 98.1278C304.755 98.0573 304.687 97.988 304.617 97.9208C304.43 97.7429 304.233 97.5785 304.024 97.4286C303.969 97.3883 303.919 97.3436 303.863 97.3055C303.6 97.131 303.322 96.9811 303.033 96.8524C302.95 96.8155 302.865 96.7887 302.78 96.7562C302.553 96.669 302.323 96.5962 302.085 96.5392C301.987 96.5157 301.89 96.4922 301.791 96.4743C301.465 96.4139 301.134 96.3736 300.794 96.3736H235.795C234.683 92.8932 232.521 89.8917 229.693 87.7179V79.5937C229.693 76.5049 227.203 74 224.131 74H213.747C210.676 74 208.185 76.5049 208.185 79.5937V87.8511C205.443 90.0136 203.349 92.9659 202.26 96.3747H137.084C136.745 96.3747 136.414 96.4161 136.087 96.4754C135.987 96.4933 135.891 96.5168 135.793 96.5403C135.555 96.5974 135.324 96.6701 135.098 96.7573C135.014 96.7898 134.928 96.8166 134.846 96.8535C134.556 96.9822 134.278 97.131 134.016 97.3066C133.959 97.3447 133.909 97.3894 133.854 97.4297C133.645 97.5796 133.448 97.7429 133.261 97.9219C133.19 97.9891 133.124 98.0584 133.056 98.1289C132.885 98.309 132.73 98.5014 132.584 98.7039C132.537 98.7688 132.486 98.8292 132.443 98.8952C132.28 99.1425 132.133 99.402 132.01 99.6784L131.962 99.7858C131.961 99.788 131.96 99.7902 131.959 99.7925L94.9915 182.685C94.3663 183.59 93.9937 184.686 93.9937 185.871C93.9937 209.765 113.324 229.205 137.084 229.205C160.844 229.205 180.174 209.765 180.174 185.871C180.174 184.686 179.803 183.591 179.176 182.686L145.674 107.56H202.395C203.515 110.81 205.544 113.628 208.184 115.711V255.979H158.859C156.778 255.979 154.87 257.148 153.916 259.009L138.615 288.842C137.726 290.576 137.799 292.651 138.808 294.317C139.818 295.983 141.617 297 143.558 297H294.319C294.325 296.999 294.332 297 294.341 297C297.412 297 299.903 294.495 299.903 291.406C299.903 290.31 299.59 289.287 299.048 288.425L283.959 259.009C283.005 257.148 281.097 255.979 279.016 255.979H229.692V115.844C232.417 113.749 234.514 110.881 235.658 107.56H292.203L258.3 183.582C258.292 183.603 258.287 183.623 258.278 183.643C258.253 183.703 258.234 183.766 258.209 183.827C258.109 184.084 258.029 184.345 257.968 184.609C257.952 184.679 257.932 184.746 257.919 184.815C257.858 185.136 257.827 185.46 257.822 185.784C257.822 185.814 257.813 185.841 257.813 185.871C257.813 209.765 277.143 229.205 300.903 229.205C324.663 229.205 343.994 209.765 343.994 185.871C343.994 184.549 343.518 183.35 342.754 182.392ZM165.91 180.278H108.258L137.084 115.636L165.91 180.278ZM225.516 101.78C225.516 105.379 222.605 108.306 219.027 108.306C215.448 108.306 212.537 105.378 212.537 101.78C212.537 98.1815 215.448 95.2549 219.027 95.2549C222.605 95.2538 225.516 98.1815 225.516 101.78ZM271.966 180.278L300.793 115.636L329.619 180.278H271.966Z" fill="#9A7D62"/>
</svg>
