<svg width="1358" height="1079" viewBox="0 0 1358 1079" fill="none" xmlns="http://www.w3.org/2000/svg">
<path d="M539.5 1079C837.458 1079 1079 837.458 1079 539.5C1079 241.542 837.458 0 539.5 0C241.542 0 0 241.542 0 539.5C0 837.458 241.542 1079 539.5 1079Z" fill="black"/>
<path d="M816.753 841.067C950.645 918.362 1173.57 838.873 1262.66 684.556C1351.75 530.239 1184.46 420.029 1050.57 342.733C916.679 265.437 789.792 358.977 700.705 513.294C611.617 667.612 682.862 763.771 816.753 841.067Z" fill="#E6C795" fill-opacity="0.97"/>
<path d="M431.857 471.551C431.857 417.145 474.428 373.268 527.978 373.268C581.187 373.268 624.099 417.145 624.099 471.551C623.758 526.309 580.846 569.833 527.978 569.833C474.769 569.833 431.857 525.957 431.857 471.551ZM962.056 893.081H787.649V733.722C787.649 656.088 721.296 593.335 646.638 593.335H412.858C330.894 593.335 260.678 665.957 260.715 737.517V1029.67C260.619 1062.05 282.984 1078.96 305.245 1079C327.562 1079.04 349.774 1062.13 349.774 1029.67V745.105H379.461L412.858 1065L476.5 1076L541 1079L612 1076L673 1061.5L668.903 745.105H698.59L698.89 936.222C698.693 969.342 718.713 983.445 739.408 984.143H962.056C1022.78 984.143 1022.78 893.081 962.056 893.081ZM1189.19 722.708H1190.27H1195.84C1195.84 761.269 1165.39 792.404 1127.67 792.404C1089.96 792.404 1059.51 761.113 1059.51 722.708H1066H1067.08L1114.07 563.876H1024.89V811.049H1113.14V846.45H1101.86H1014.53H927.197H915.913V811.049H1004.17V563.88H914.985L961.971 722.712H963.055H969.545C969.545 761.273 939.094 792.408 901.381 792.408C863.668 792.408 833.217 761.117 833.217 722.712H838.78H839.863L889.633 553.45H1003.24V532.274C1003.24 526.427 1008.95 520.736 1014.52 520.736C1020.24 520.736 1025.8 526.583 1025.8 532.274V553.294H1139.41L1189.19 722.708ZM900.928 568.619L856.261 722.708H946.527L900.928 568.619ZM1172.81 722.708L1128.14 568.619L1082.54 722.708H1172.81Z" fill="#9A7D62"/>
</svg>
