<svg width="120" height="40" viewBox="0 0 120 40" fill="none" xmlns="http://www.w3.org/2000/svg">
<g clip-path="url(#clip0_205_344)">
<path d="M54.4331 20.958H46.5943C46.6242 22.0212 46.9499 22.841 47.5713 23.4175C48.2002 23.994 49.0612 24.2822 50.1543 24.2822C51.3822 24.2822 52.509 23.9154 53.5347 23.1816V25.2817C52.4865 25.9406 51.1014 26.27 49.3794 26.27C47.6873 26.27 46.3584 25.7497 45.3926 24.709C44.4343 23.6608 43.9551 22.1896 43.9551 20.2954C43.9551 18.506 44.4829 17.0498 45.5386 15.9268C46.6017 14.7962 47.9194 14.231 49.4917 14.231C51.064 14.231 52.2806 14.7363 53.1416 15.7471C54.0026 16.7578 54.4331 18.1616 54.4331 19.9585V20.958ZM51.9175 19.1162C51.91 18.1803 51.6891 17.4541 51.2549 16.9375C50.8206 16.4134 50.2217 16.1514 49.458 16.1514C48.7093 16.1514 48.0729 16.4246 47.5488 16.9712C47.0322 17.5177 46.714 18.2327 46.5943 19.1162H51.9175Z" fill="black"/>
<path d="M67.3809 25.0796C67.3809 29.3022 65.2583 31.4136 61.0132 31.4136C59.5158 31.4136 58.2093 31.1628 57.0938 30.6611V28.2803C58.3516 28.999 59.5457 29.3584 60.6763 29.3584C63.409 29.3584 64.7755 28.0145 64.7755 25.3267V24.0688H64.7306C63.8696 25.5363 62.5742 26.27 60.8447 26.27C59.4446 26.27 58.3142 25.7609 57.4532 24.7427C56.5997 23.717 56.1729 22.3431 56.1729 20.6211C56.1729 18.667 56.6333 17.1134 57.5542 15.9604C58.4751 14.8075 59.7405 14.231 61.3502 14.231C62.87 14.231 63.9968 14.8524 64.7306 16.0952H64.7755V14.5005H67.3809V25.0796ZM64.7979 20.7334V19.2397C64.7979 18.4312 64.5284 17.7424 63.9893 17.1733C63.4578 16.5968 62.7913 16.3086 61.9902 16.3086C61.0019 16.3086 60.2271 16.6755 59.6656 17.4092C59.1116 18.1354 58.8345 19.1536 58.8345 20.4639C58.8345 21.5944 59.1003 22.5003 59.6319 23.1816C60.171 23.8555 60.8823 24.1924 61.7657 24.1924C62.6642 24.1924 63.3941 23.8704 63.9557 23.2266C64.5172 22.5752 64.7979 21.7441 64.7979 20.7334Z" fill="black"/>
<path d="M72.0869 12.0859C71.6602 12.0859 71.2933 11.9474 70.9863 11.6704C70.6868 11.3934 70.5371 11.0415 70.5371 10.6147C70.5371 10.188 70.6868 9.83236 70.9863 9.54785C71.2933 9.26335 71.6602 9.12109 72.0869 9.12109C72.5286 9.12109 72.903 9.26335 73.21 9.54785C73.5169 9.83236 73.6704 10.188 73.6704 10.6147C73.6704 11.019 73.5169 11.3672 73.21 11.6592C72.903 11.9437 72.5286 12.0859 72.0869 12.0859ZM73.3784 26.0005H70.7729V14.5005H73.3784V26.0005Z" fill="black"/>
<path d="M76.0732 25.6411V23.2266C77.0465 23.9678 78.1209 24.3384 79.2964 24.3384C80.8686 24.3384 81.6548 23.8742 81.6548 22.9458C81.6548 22.6838 81.5874 22.4629 81.4526 22.2832C81.3179 22.096 81.1344 21.9313 80.9023 21.7891C80.6777 21.6468 80.4082 21.5195 80.0937 21.4072C79.7868 21.2949 79.4424 21.1676 79.0605 21.0254C78.5889 20.8382 78.1621 20.6398 77.7803 20.4302C77.4059 20.2205 77.0915 19.9847 76.8369 19.7227C76.5898 19.4531 76.4027 19.1499 76.2754 18.813C76.1481 18.4761 76.0845 18.083 76.0845 17.6338C76.0845 17.0798 76.2155 16.5931 76.4775 16.1738C76.7396 15.7471 77.0915 15.3914 77.5332 15.1069C77.9749 14.8149 78.4766 14.5978 79.0381 14.4556C79.5996 14.3058 80.1798 14.231 80.7788 14.231C81.8419 14.231 82.7928 14.3919 83.6313 14.7139V16.9937C82.8227 16.4396 81.8944 16.1626 80.8462 16.1626C80.5168 16.1626 80.2173 16.1963 79.9477 16.2637C79.6857 16.3311 79.4611 16.4246 79.2739 16.5444C79.0867 16.6642 78.9407 16.8102 78.8359 16.9824C78.7311 17.1471 78.6787 17.3306 78.6787 17.5327C78.6787 17.7798 78.7311 17.9894 78.8359 18.1616C78.9407 18.3338 79.0942 18.4873 79.2964 18.6221C79.506 18.7493 79.7531 18.8691 80.0376 18.9814C80.3296 19.0863 80.6627 19.2023 81.0371 19.3296C81.5312 19.5317 81.973 19.7376 82.3623 19.9473C82.7591 20.1569 83.096 20.3965 83.373 20.666C83.6501 20.9281 83.8634 21.235 84.0132 21.5869C84.1629 21.9313 84.2378 22.3431 84.2378 22.8223C84.2378 23.4062 84.103 23.9154 83.8335 24.3496C83.564 24.7839 83.2046 25.1432 82.7554 25.4277C82.3061 25.7122 81.7858 25.9219 81.1943 26.0566C80.6103 26.1989 79.9927 26.27 79.3413 26.27C78.0835 26.27 76.9941 26.0604 76.0732 25.6411Z" fill="black"/>
<path d="M92.7842 25.877C92.2751 26.1315 91.605 26.2588 90.7739 26.2588C88.5428 26.2588 87.4272 25.1882 87.4272 23.0469V16.5444H85.5068V14.5005H87.4272V11.8389L90.0327 11.0977V14.5005H92.7842V16.5444H90.0327V22.2944C90.0327 22.9757 90.1562 23.4624 90.4033 23.7544C90.6504 24.0464 91.0622 24.1924 91.6387 24.1924C92.0804 24.1924 92.4622 24.0651 92.7842 23.8105V25.877Z" fill="black"/>
<path d="M96.3447 12.0859C95.918 12.0859 95.5511 11.9474 95.2441 11.6704C94.9447 11.3934 94.7949 11.0415 94.7949 10.6147C94.7949 10.188 94.9447 9.83236 95.2441 9.54785C95.5511 9.26335 95.918 9.12109 96.3447 9.12109C96.7865 9.12109 97.1608 9.26335 97.4678 9.54785C97.7747 9.83236 97.9282 10.188 97.9282 10.6147C97.9282 11.019 97.7747 11.3672 97.4678 11.6592C97.1608 11.9437 96.7865 12.0859 96.3447 12.0859ZM97.6362 26.0005H95.0308V14.5005H97.6362V26.0005Z" fill="black"/>
<path d="M107.553 11.0977C107.201 10.8955 106.8 10.7944 106.351 10.7944C105.086 10.7944 104.453 11.5094 104.453 12.9395V14.5005H107.126V16.5444H104.464V26.0005H101.859V16.5444H99.8936V14.5005H101.859V12.6362C101.859 11.4233 102.256 10.4688 103.049 9.77246C103.843 9.06868 104.835 8.7168 106.025 8.7168C106.669 8.7168 107.178 8.78792 107.553 8.93018V11.0977Z" fill="black"/>
<path d="M119.367 14.5005L114.179 27.8423C113.101 30.2231 111.588 31.4136 109.642 31.4136C109.095 31.4136 108.638 31.3649 108.271 31.2676V29.1001C108.683 29.2349 109.058 29.3022 109.395 29.3022C110.368 29.3022 111.094 28.8231 111.573 27.8647L112.348 25.978L107.777 14.5005H110.664L113.404 22.856C113.434 22.9608 113.501 23.2378 113.606 23.687H113.662C113.7 23.5148 113.767 23.2453 113.864 22.8784L116.739 14.5005H119.367Z" fill="black"/>
<mask id="mask0_205_344" style="mask-type:luminance" maskUnits="userSpaceOnUse" x="42" y="7" width="79" height="25">
<path d="M119.955 7.7168H42.9551V31.7168H119.955V7.7168Z" fill="white" stroke="#223647" stroke-width="0.2"/>
<path d="M54.4331 20.958H46.5943C46.6242 22.0212 46.9499 22.841 47.5713 23.4175C48.2002 23.994 49.0612 24.2822 50.1543 24.2822C51.3822 24.2822 52.509 23.9154 53.5347 23.1816V25.2817C52.4865 25.9406 51.1014 26.27 49.3794 26.27C47.6873 26.27 46.3584 25.7497 45.3926 24.709C44.4343 23.6608 43.9551 22.1896 43.9551 20.2954C43.9551 18.506 44.4829 17.0498 45.5386 15.9268C46.6017 14.7962 47.9194 14.231 49.4917 14.231C51.064 14.231 52.2806 14.7363 53.1416 15.7471C54.0026 16.7578 54.4331 18.1616 54.4331 19.9585V20.958ZM51.9175 19.1162C51.91 18.1803 51.6891 17.4541 51.2549 16.9375C50.8206 16.4134 50.2217 16.1514 49.458 16.1514C48.7093 16.1514 48.0729 16.4246 47.5488 16.9712C47.0322 17.5177 46.714 18.2327 46.5943 19.1162H51.9175Z" stroke="#223647" stroke-width="0.2"/>
<path d="M67.3818 25.0796C67.3818 29.3022 65.2593 31.4136 61.0142 31.4136C59.5168 31.4136 58.2103 31.1628 57.0947 30.6611V28.2803C58.3526 28.999 59.5467 29.3584 60.6773 29.3584C63.41 29.3584 64.7764 28.0145 64.7764 25.3267V24.0688H64.7315C63.8705 25.5363 62.5752 26.27 60.8457 26.27C59.4456 26.27 58.3151 25.7609 57.4541 24.7427C56.6006 23.717 56.1738 22.3431 56.1738 20.6211C56.1738 18.667 56.6343 17.1134 57.5552 15.9604C58.4761 14.8075 59.7414 14.231 61.3511 14.231C62.8709 14.231 63.9977 14.8524 64.7315 16.0952H64.7764V14.5005H67.3818V25.0796ZM64.7988 20.7334V19.2397C64.7988 18.4312 64.5293 17.7424 63.9902 17.1733C63.4587 16.5968 62.7923 16.3086 61.9912 16.3086C61.0029 16.3086 60.228 16.6755 59.6665 17.4092C59.1125 18.1354 58.8355 19.1536 58.8355 20.4639C58.8355 21.5944 59.1012 22.5003 59.6328 23.1816C60.1719 23.8555 60.8832 24.1924 61.7666 24.1924C62.6651 24.1924 63.395 23.8704 63.9566 23.2266C64.5181 22.5752 64.7988 21.7441 64.7988 20.7334Z" stroke="#223647" stroke-width="0.2"/>
<path d="M72.0869 12.0859C71.6602 12.0859 71.2933 11.9474 70.9863 11.6704C70.6868 11.3934 70.5371 11.0415 70.5371 10.6147C70.5371 10.188 70.6868 9.83236 70.9863 9.54785C71.2933 9.26335 71.6602 9.12109 72.0869 9.12109C72.5286 9.12109 72.903 9.26335 73.21 9.54785C73.5169 9.83236 73.6704 10.188 73.6704 10.6147C73.6704 11.019 73.5169 11.3672 73.21 11.6592C72.903 11.9437 72.5286 12.0859 72.0869 12.0859ZM73.3784 26.0005H70.7729V14.5005H73.3784V26.0005Z" stroke="#223647" stroke-width="0.2"/>
<path d="M76.0742 25.6411V23.2266C77.0475 23.9678 78.1219 24.3384 79.2974 24.3384C80.8696 24.3384 81.6558 23.8742 81.6558 22.9458C81.6558 22.6838 81.5884 22.4629 81.4536 22.2832C81.3189 22.096 81.1354 21.9313 80.9033 21.7891C80.6787 21.6468 80.4092 21.5195 80.0947 21.4072C79.7878 21.2949 79.4434 21.1676 79.0615 21.0254C78.5899 20.8382 78.1631 20.6398 77.7813 20.4302C77.4069 20.2205 77.0925 19.9847 76.8379 19.7227C76.5908 19.4531 76.4037 19.1499 76.2764 18.813C76.1491 18.4761 76.0855 18.083 76.0855 17.6338C76.0855 17.0798 76.2165 16.5931 76.4785 16.1738C76.7406 15.7471 77.0925 15.3914 77.5342 15.1069C77.9759 14.8149 78.4776 14.5978 79.0391 14.4556C79.6006 14.3058 80.1808 14.231 80.7798 14.231C81.8429 14.231 82.7938 14.3919 83.6323 14.7139V16.9937C82.8237 16.4396 81.8954 16.1626 80.8472 16.1626C80.5178 16.1626 80.2183 16.1963 79.9487 16.2637C79.6867 16.3311 79.4621 16.4246 79.2749 16.5444C79.0877 16.6642 78.9417 16.8102 78.8369 16.9824C78.7321 17.1471 78.6797 17.3306 78.6797 17.5327C78.6797 17.7798 78.7321 17.9894 78.8369 18.1616C78.9417 18.3338 79.0952 18.4873 79.2974 18.6221C79.507 18.7493 79.7541 18.8691 80.0386 18.9814C80.3306 19.0863 80.6637 19.2023 81.0381 19.3296C81.5322 19.5317 81.974 19.7376 82.3633 19.9473C82.7601 20.1569 83.097 20.3965 83.374 20.666C83.6511 20.9281 83.8644 21.235 84.0142 21.5869C84.1639 21.9313 84.2388 22.3431 84.2388 22.8223C84.2388 23.4062 84.104 23.9154 83.8345 24.3496C83.565 24.7839 83.2056 25.1432 82.7564 25.4277C82.3071 25.7122 81.7868 25.9219 81.1953 26.0566C80.6113 26.1989 79.9937 26.27 79.3423 26.27C78.0845 26.27 76.9951 26.0604 76.0742 25.6411Z" stroke="#223647" stroke-width="0.2"/>
<path d="M92.7852 25.877C92.2761 26.1315 91.606 26.2588 90.7749 26.2588C88.5438 26.2588 87.4282 25.1882 87.4282 23.0469V16.5444H85.5078V14.5005H87.4282V11.8389L90.0337 11.0977V14.5005H92.7852V16.5444H90.0337V22.2944C90.0337 22.9757 90.1572 23.4624 90.4043 23.7544C90.6514 24.0464 91.0632 24.1924 91.6397 24.1924C92.0814 24.1924 92.4632 24.0651 92.7852 23.8105V25.877Z" stroke="#223647" stroke-width="0.2"/>
<path d="M96.3447 12.0859C95.918 12.0859 95.5511 11.9474 95.2441 11.6704C94.9447 11.3934 94.7949 11.0415 94.7949 10.6147C94.7949 10.188 94.9447 9.83236 95.2441 9.54785C95.5511 9.26335 95.918 9.12109 96.3447 9.12109C96.7865 9.12109 97.1608 9.26335 97.4678 9.54785C97.7747 9.83236 97.9282 10.188 97.9282 10.6147C97.9282 11.019 97.7747 11.3672 97.4678 11.6592C97.1608 11.9437 96.7865 12.0859 96.3447 12.0859ZM97.6362 26.0005H95.0308V14.5005H97.6362V26.0005Z" stroke="#223647" stroke-width="0.2"/>
<path d="M107.554 11.0977C107.202 10.8955 106.801 10.7944 106.352 10.7944C105.087 10.7944 104.454 11.5094 104.454 12.9395V14.5005H107.127V16.5444H104.465V26.0005H101.86V16.5444H99.8945V14.5005H101.86V12.6362C101.86 11.4233 102.257 10.4688 103.05 9.77246C103.844 9.06868 104.836 8.7168 106.026 8.7168C106.67 8.7168 107.179 8.78792 107.554 8.93018V11.0977Z" stroke="#223647" stroke-width="0.2"/>
<path d="M119.367 14.5005L114.179 27.8423C113.101 30.2231 111.588 31.4136 109.642 31.4136C109.095 31.4136 108.638 31.3649 108.271 31.2676V29.1001C108.683 29.2349 109.058 29.3022 109.395 29.3022C110.368 29.3022 111.094 28.8231 111.573 27.8647L112.348 25.978L107.777 14.5005H110.664L113.404 22.856C113.434 22.9608 113.501 23.2378 113.606 23.687H113.662C113.7 23.5148 113.767 23.2453 113.864 22.8784L116.739 14.5005H119.367Z" stroke="#223647" stroke-width="0.2"/>
</mask>
<g mask="url(#mask0_205_344)">
<path d="M54.4331 20.958H46.5943C46.6242 22.0212 46.9499 22.841 47.5713 23.4175C48.2002 23.994 49.0612 24.2822 50.1543 24.2822C51.3822 24.2822 52.509 23.9154 53.5347 23.1816V25.2817C52.4865 25.9406 51.1014 26.27 49.3794 26.27C47.6873 26.27 46.3584 25.7497 45.3926 24.709C44.4343 23.6608 43.9551 22.1896 43.9551 20.2954C43.9551 18.506 44.4829 17.0498 45.5386 15.9268C46.6017 14.7962 47.9194 14.231 49.4917 14.231C51.064 14.231 52.2806 14.7363 53.1416 15.7471C54.0026 16.7578 54.4331 18.1616 54.4331 19.9585V20.958ZM51.9175 19.1162C51.91 18.1803 51.6891 17.4541 51.2549 16.9375C50.8206 16.4134 50.2217 16.1514 49.458 16.1514C48.7093 16.1514 48.0729 16.4246 47.5488 16.9712C47.0322 17.5177 46.714 18.2327 46.5943 19.1162H51.9175Z" stroke="black" stroke-width="0.2"/>
</g>
<mask id="mask1_205_344" style="mask-type:luminance" maskUnits="userSpaceOnUse" x="42" y="7" width="79" height="25">
<path d="M119.955 7.7168H42.9551V31.7168H119.955V7.7168Z" fill="white" stroke="#223647" stroke-width="0.2"/>
<path d="M54.4331 20.958H46.5943C46.6242 22.0212 46.9499 22.841 47.5713 23.4175C48.2002 23.994 49.0612 24.2822 50.1543 24.2822C51.3822 24.2822 52.509 23.9154 53.5347 23.1816V25.2817C52.4865 25.9406 51.1014 26.27 49.3794 26.27C47.6873 26.27 46.3584 25.7497 45.3926 24.709C44.4343 23.6608 43.9551 22.1896 43.9551 20.2954C43.9551 18.506 44.4829 17.0498 45.5386 15.9268C46.6017 14.7962 47.9194 14.231 49.4917 14.231C51.064 14.231 52.2806 14.7363 53.1416 15.7471C54.0026 16.7578 54.4331 18.1616 54.4331 19.9585V20.958ZM51.9175 19.1162C51.91 18.1803 51.6891 17.4541 51.2549 16.9375C50.8206 16.4134 50.2217 16.1514 49.458 16.1514C48.7093 16.1514 48.0729 16.4246 47.5488 16.9712C47.0322 17.5177 46.714 18.2327 46.5943 19.1162H51.9175Z" stroke="#223647" stroke-width="0.2"/>
<path d="M67.3818 25.0796C67.3818 29.3022 65.2593 31.4136 61.0142 31.4136C59.5168 31.4136 58.2103 31.1628 57.0947 30.6611V28.2803C58.3526 28.999 59.5467 29.3584 60.6773 29.3584C63.41 29.3584 64.7764 28.0145 64.7764 25.3267V24.0688H64.7315C63.8705 25.5363 62.5752 26.27 60.8457 26.27C59.4456 26.27 58.3151 25.7609 57.4541 24.7427C56.6006 23.717 56.1738 22.3431 56.1738 20.6211C56.1738 18.667 56.6343 17.1134 57.5552 15.9604C58.4761 14.8075 59.7414 14.231 61.3511 14.231C62.8709 14.231 63.9977 14.8524 64.7315 16.0952H64.7764V14.5005H67.3818V25.0796ZM64.7988 20.7334V19.2397C64.7988 18.4312 64.5293 17.7424 63.9902 17.1733C63.4587 16.5968 62.7923 16.3086 61.9912 16.3086C61.0029 16.3086 60.228 16.6755 59.6665 17.4092C59.1125 18.1354 58.8355 19.1536 58.8355 20.4639C58.8355 21.5944 59.1012 22.5003 59.6328 23.1816C60.1719 23.8555 60.8832 24.1924 61.7666 24.1924C62.6651 24.1924 63.395 23.8704 63.9566 23.2266C64.5181 22.5752 64.7988 21.7441 64.7988 20.7334Z" stroke="#223647" stroke-width="0.2"/>
<path d="M72.0869 12.0859C71.6602 12.0859 71.2933 11.9474 70.9863 11.6704C70.6868 11.3934 70.5371 11.0415 70.5371 10.6147C70.5371 10.188 70.6868 9.83236 70.9863 9.54785C71.2933 9.26335 71.6602 9.12109 72.0869 9.12109C72.5286 9.12109 72.903 9.26335 73.21 9.54785C73.5169 9.83236 73.6704 10.188 73.6704 10.6147C73.6704 11.019 73.5169 11.3672 73.21 11.6592C72.903 11.9437 72.5286 12.0859 72.0869 12.0859ZM73.3784 26.0005H70.7729V14.5005H73.3784V26.0005Z" stroke="#223647" stroke-width="0.2"/>
<path d="M76.0742 25.6411V23.2266C77.0475 23.9678 78.1219 24.3384 79.2974 24.3384C80.8696 24.3384 81.6558 23.8742 81.6558 22.9458C81.6558 22.6838 81.5884 22.4629 81.4536 22.2832C81.3189 22.096 81.1354 21.9313 80.9033 21.7891C80.6787 21.6468 80.4092 21.5195 80.0947 21.4072C79.7878 21.2949 79.4434 21.1676 79.0615 21.0254C78.5899 20.8382 78.1631 20.6398 77.7813 20.4302C77.4069 20.2205 77.0925 19.9847 76.8379 19.7227C76.5908 19.4531 76.4037 19.1499 76.2764 18.813C76.1491 18.4761 76.0855 18.083 76.0855 17.6338C76.0855 17.0798 76.2165 16.5931 76.4785 16.1738C76.7406 15.7471 77.0925 15.3914 77.5342 15.1069C77.9759 14.8149 78.4776 14.5978 79.0391 14.4556C79.6006 14.3058 80.1808 14.231 80.7798 14.231C81.8429 14.231 82.7938 14.3919 83.6323 14.7139V16.9937C82.8237 16.4396 81.8954 16.1626 80.8472 16.1626C80.5178 16.1626 80.2183 16.1963 79.9487 16.2637C79.6867 16.3311 79.4621 16.4246 79.2749 16.5444C79.0877 16.6642 78.9417 16.8102 78.8369 16.9824C78.7321 17.1471 78.6797 17.3306 78.6797 17.5327C78.6797 17.7798 78.7321 17.9894 78.8369 18.1616C78.9417 18.3338 79.0952 18.4873 79.2974 18.6221C79.507 18.7493 79.7541 18.8691 80.0386 18.9814C80.3306 19.0863 80.6637 19.2023 81.0381 19.3296C81.5322 19.5317 81.974 19.7376 82.3633 19.9473C82.7601 20.1569 83.097 20.3965 83.374 20.666C83.6511 20.9281 83.8644 21.235 84.0142 21.5869C84.1639 21.9313 84.2388 22.3431 84.2388 22.8223C84.2388 23.4062 84.104 23.9154 83.8345 24.3496C83.565 24.7839 83.2056 25.1432 82.7564 25.4277C82.3071 25.7122 81.7868 25.9219 81.1953 26.0566C80.6113 26.1989 79.9937 26.27 79.3423 26.27C78.0845 26.27 76.9951 26.0604 76.0742 25.6411Z" stroke="#223647" stroke-width="0.2"/>
<path d="M92.7852 25.877C92.2761 26.1315 91.606 26.2588 90.7749 26.2588C88.5438 26.2588 87.4282 25.1882 87.4282 23.0469V16.5444H85.5078V14.5005H87.4282V11.8389L90.0337 11.0977V14.5005H92.7852V16.5444H90.0337V22.2944C90.0337 22.9757 90.1572 23.4624 90.4043 23.7544C90.6514 24.0464 91.0632 24.1924 91.6397 24.1924C92.0814 24.1924 92.4632 24.0651 92.7852 23.8105V25.877Z" stroke="#223647" stroke-width="0.2"/>
<path d="M96.3447 12.0859C95.918 12.0859 95.5511 11.9474 95.2441 11.6704C94.9447 11.3934 94.7949 11.0415 94.7949 10.6147C94.7949 10.188 94.9447 9.83236 95.2441 9.54785C95.5511 9.26335 95.918 9.12109 96.3447 9.12109C96.7865 9.12109 97.1608 9.26335 97.4678 9.54785C97.7747 9.83236 97.9282 10.188 97.9282 10.6147C97.9282 11.019 97.7747 11.3672 97.4678 11.6592C97.1608 11.9437 96.7865 12.0859 96.3447 12.0859ZM97.6362 26.0005H95.0308V14.5005H97.6362V26.0005Z" stroke="#223647" stroke-width="0.2"/>
<path d="M107.554 11.0977C107.202 10.8955 106.801 10.7944 106.352 10.7944C105.087 10.7944 104.454 11.5094 104.454 12.9395V14.5005H107.127V16.5444H104.465V26.0005H101.86V16.5444H99.8945V14.5005H101.86V12.6362C101.86 11.4233 102.257 10.4688 103.05 9.77246C103.844 9.06868 104.836 8.7168 106.026 8.7168C106.67 8.7168 107.179 8.78792 107.554 8.93018V11.0977Z" stroke="#223647" stroke-width="0.2"/>
<path d="M119.367 14.5005L114.179 27.8423C113.101 30.2231 111.588 31.4136 109.642 31.4136C109.095 31.4136 108.638 31.3649 108.271 31.2676V29.1001C108.683 29.2349 109.058 29.3022 109.395 29.3022C110.368 29.3022 111.094 28.8231 111.573 27.8647L112.348 25.978L107.777 14.5005H110.664L113.404 22.856C113.434 22.9608 113.501 23.2378 113.606 23.687H113.662C113.7 23.5148 113.767 23.2453 113.864 22.8784L116.739 14.5005H119.367Z" stroke="#223647" stroke-width="0.2"/>
</mask>
<g mask="url(#mask1_205_344)">
<path d="M67.3818 25.0796C67.3818 29.3022 65.2593 31.4136 61.0142 31.4136C59.5168 31.4136 58.2103 31.1628 57.0947 30.6611V28.2803C58.3526 28.999 59.5467 29.3584 60.6773 29.3584C63.41 29.3584 64.7764 28.0145 64.7764 25.3267V24.0688H64.7315C63.8705 25.5363 62.5752 26.27 60.8457 26.27C59.4456 26.27 58.3151 25.7609 57.4541 24.7427C56.6006 23.717 56.1738 22.3431 56.1738 20.6211C56.1738 18.667 56.6343 17.1134 57.5552 15.9604C58.4761 14.8075 59.7414 14.231 61.3511 14.231C62.8709 14.231 63.9977 14.8524 64.7315 16.0952H64.7764V14.5005H67.3818V25.0796ZM64.7988 20.7334V19.2397C64.7988 18.4312 64.5293 17.7424 63.9902 17.1733C63.4587 16.5968 62.7923 16.3086 61.9912 16.3086C61.0029 16.3086 60.228 16.6755 59.6665 17.4092C59.1125 18.1354 58.8355 19.1536 58.8355 20.4639C58.8355 21.5944 59.1012 22.5003 59.6328 23.1816C60.1719 23.8555 60.8832 24.1924 61.7666 24.1924C62.6651 24.1924 63.395 23.8704 63.9566 23.2266C64.5181 22.5752 64.7988 21.7441 64.7988 20.7334Z" stroke="black" stroke-width="0.2"/>
</g>
<mask id="mask2_205_344" style="mask-type:luminance" maskUnits="userSpaceOnUse" x="42" y="7" width="79" height="25">
<path d="M119.955 7.7168H42.9551V31.7168H119.955V7.7168Z" fill="white" stroke="#223647" stroke-width="0.2"/>
<path d="M54.4331 20.958H46.5943C46.6242 22.0212 46.9499 22.841 47.5713 23.4175C48.2002 23.994 49.0612 24.2822 50.1543 24.2822C51.3822 24.2822 52.509 23.9154 53.5347 23.1816V25.2817C52.4865 25.9406 51.1014 26.27 49.3794 26.27C47.6873 26.27 46.3584 25.7497 45.3926 24.709C44.4343 23.6608 43.9551 22.1896 43.9551 20.2954C43.9551 18.506 44.4829 17.0498 45.5386 15.9268C46.6017 14.7962 47.9194 14.231 49.4917 14.231C51.064 14.231 52.2806 14.7363 53.1416 15.7471C54.0026 16.7578 54.4331 18.1616 54.4331 19.9585V20.958ZM51.9175 19.1162C51.91 18.1803 51.6891 17.4541 51.2549 16.9375C50.8206 16.4134 50.2217 16.1514 49.458 16.1514C48.7093 16.1514 48.0729 16.4246 47.5488 16.9712C47.0322 17.5177 46.714 18.2327 46.5943 19.1162H51.9175Z" stroke="#223647" stroke-width="0.2"/>
<path d="M67.3818 25.0796C67.3818 29.3022 65.2593 31.4136 61.0142 31.4136C59.5168 31.4136 58.2103 31.1628 57.0947 30.6611V28.2803C58.3526 28.999 59.5467 29.3584 60.6773 29.3584C63.41 29.3584 64.7764 28.0145 64.7764 25.3267V24.0688H64.7315C63.8705 25.5363 62.5752 26.27 60.8457 26.27C59.4456 26.27 58.3151 25.7609 57.4541 24.7427C56.6006 23.717 56.1738 22.3431 56.1738 20.6211C56.1738 18.667 56.6343 17.1134 57.5552 15.9604C58.4761 14.8075 59.7414 14.231 61.3511 14.231C62.8709 14.231 63.9977 14.8524 64.7315 16.0952H64.7764V14.5005H67.3818V25.0796ZM64.7988 20.7334V19.2397C64.7988 18.4312 64.5293 17.7424 63.9902 17.1733C63.4587 16.5968 62.7923 16.3086 61.9912 16.3086C61.0029 16.3086 60.228 16.6755 59.6665 17.4092C59.1125 18.1354 58.8355 19.1536 58.8355 20.4639C58.8355 21.5944 59.1012 22.5003 59.6328 23.1816C60.1719 23.8555 60.8832 24.1924 61.7666 24.1924C62.6651 24.1924 63.395 23.8704 63.9566 23.2266C64.5181 22.5752 64.7988 21.7441 64.7988 20.7334Z" stroke="#223647" stroke-width="0.2"/>
<path d="M72.0869 12.0859C71.6602 12.0859 71.2933 11.9474 70.9863 11.6704C70.6868 11.3934 70.5371 11.0415 70.5371 10.6147C70.5371 10.188 70.6868 9.83236 70.9863 9.54785C71.2933 9.26335 71.6602 9.12109 72.0869 9.12109C72.5286 9.12109 72.903 9.26335 73.21 9.54785C73.5169 9.83236 73.6704 10.188 73.6704 10.6147C73.6704 11.019 73.5169 11.3672 73.21 11.6592C72.903 11.9437 72.5286 12.0859 72.0869 12.0859ZM73.3784 26.0005H70.7729V14.5005H73.3784V26.0005Z" stroke="#223647" stroke-width="0.2"/>
<path d="M76.0742 25.6411V23.2266C77.0475 23.9678 78.1219 24.3384 79.2974 24.3384C80.8696 24.3384 81.6558 23.8742 81.6558 22.9458C81.6558 22.6838 81.5884 22.4629 81.4536 22.2832C81.3189 22.096 81.1354 21.9313 80.9033 21.7891C80.6787 21.6468 80.4092 21.5195 80.0947 21.4072C79.7878 21.2949 79.4434 21.1676 79.0615 21.0254C78.5899 20.8382 78.1631 20.6398 77.7813 20.4302C77.4069 20.2205 77.0925 19.9847 76.8379 19.7227C76.5908 19.4531 76.4037 19.1499 76.2764 18.813C76.1491 18.4761 76.0855 18.083 76.0855 17.6338C76.0855 17.0798 76.2165 16.5931 76.4785 16.1738C76.7406 15.7471 77.0925 15.3914 77.5342 15.1069C77.9759 14.8149 78.4776 14.5978 79.0391 14.4556C79.6006 14.3058 80.1808 14.231 80.7798 14.231C81.8429 14.231 82.7938 14.3919 83.6323 14.7139V16.9937C82.8237 16.4396 81.8954 16.1626 80.8472 16.1626C80.5178 16.1626 80.2183 16.1963 79.9487 16.2637C79.6867 16.3311 79.4621 16.4246 79.2749 16.5444C79.0877 16.6642 78.9417 16.8102 78.8369 16.9824C78.7321 17.1471 78.6797 17.3306 78.6797 17.5327C78.6797 17.7798 78.7321 17.9894 78.8369 18.1616C78.9417 18.3338 79.0952 18.4873 79.2974 18.6221C79.507 18.7493 79.7541 18.8691 80.0386 18.9814C80.3306 19.0863 80.6637 19.2023 81.0381 19.3296C81.5322 19.5317 81.974 19.7376 82.3633 19.9473C82.7601 20.1569 83.097 20.3965 83.374 20.666C83.6511 20.9281 83.8644 21.235 84.0142 21.5869C84.1639 21.9313 84.2388 22.3431 84.2388 22.8223C84.2388 23.4062 84.104 23.9154 83.8345 24.3496C83.565 24.7839 83.2056 25.1432 82.7564 25.4277C82.3071 25.7122 81.7868 25.9219 81.1953 26.0566C80.6113 26.1989 79.9937 26.27 79.3423 26.27C78.0845 26.27 76.9951 26.0604 76.0742 25.6411Z" stroke="#223647" stroke-width="0.2"/>
<path d="M92.7852 25.877C92.2761 26.1315 91.606 26.2588 90.7749 26.2588C88.5438 26.2588 87.4282 25.1882 87.4282 23.0469V16.5444H85.5078V14.5005H87.4282V11.8389L90.0337 11.0977V14.5005H92.7852V16.5444H90.0337V22.2944C90.0337 22.9757 90.1572 23.4624 90.4043 23.7544C90.6514 24.0464 91.0632 24.1924 91.6397 24.1924C92.0814 24.1924 92.4632 24.0651 92.7852 23.8105V25.877Z" stroke="#223647" stroke-width="0.2"/>
<path d="M96.3447 12.0859C95.918 12.0859 95.5511 11.9474 95.2441 11.6704C94.9447 11.3934 94.7949 11.0415 94.7949 10.6147C94.7949 10.188 94.9447 9.83236 95.2441 9.54785C95.5511 9.26335 95.918 9.12109 96.3447 9.12109C96.7865 9.12109 97.1608 9.26335 97.4678 9.54785C97.7747 9.83236 97.9282 10.188 97.9282 10.6147C97.9282 11.019 97.7747 11.3672 97.4678 11.6592C97.1608 11.9437 96.7865 12.0859 96.3447 12.0859ZM97.6362 26.0005H95.0308V14.5005H97.6362V26.0005Z" stroke="#223647" stroke-width="0.2"/>
<path d="M107.554 11.0977C107.202 10.8955 106.801 10.7944 106.352 10.7944C105.087 10.7944 104.454 11.5094 104.454 12.9395V14.5005H107.127V16.5444H104.465V26.0005H101.86V16.5444H99.8945V14.5005H101.86V12.6362C101.86 11.4233 102.257 10.4688 103.05 9.77246C103.844 9.06868 104.836 8.7168 106.026 8.7168C106.67 8.7168 107.179 8.78792 107.554 8.93018V11.0977Z" stroke="#223647" stroke-width="0.2"/>
<path d="M119.367 14.5005L114.179 27.8423C113.101 30.2231 111.588 31.4136 109.642 31.4136C109.095 31.4136 108.638 31.3649 108.271 31.2676V29.1001C108.683 29.2349 109.058 29.3022 109.395 29.3022C110.368 29.3022 111.094 28.8231 111.573 27.8647L112.348 25.978L107.777 14.5005H110.664L113.404 22.856C113.434 22.9608 113.501 23.2378 113.606 23.687H113.662C113.7 23.5148 113.767 23.2453 113.864 22.8784L116.739 14.5005H119.367Z" stroke="#223647" stroke-width="0.2"/>
</mask>
<g mask="url(#mask2_205_344)">
<path d="M72.0869 12.0859C71.6602 12.0859 71.2933 11.9474 70.9863 11.6704C70.6868 11.3934 70.5371 11.0415 70.5371 10.6147C70.5371 10.188 70.6868 9.83236 70.9863 9.54785C71.2933 9.26335 71.6602 9.12109 72.0869 9.12109C72.5286 9.12109 72.903 9.26335 73.21 9.54785C73.5169 9.83236 73.6704 10.188 73.6704 10.6147C73.6704 11.019 73.5169 11.3672 73.21 11.6592C72.903 11.9437 72.5286 12.0859 72.0869 12.0859ZM73.3784 26.0005H70.7729V14.5005H73.3784V26.0005Z" stroke="black" stroke-width="0.2"/>
</g>
<mask id="mask3_205_344" style="mask-type:luminance" maskUnits="userSpaceOnUse" x="42" y="7" width="79" height="25">
<path d="M119.955 7.7168H42.9551V31.7168H119.955V7.7168Z" fill="white" stroke="#223647" stroke-width="0.2"/>
<path d="M54.4331 20.958H46.5943C46.6242 22.0212 46.9499 22.841 47.5713 23.4175C48.2002 23.994 49.0612 24.2822 50.1543 24.2822C51.3822 24.2822 52.509 23.9154 53.5347 23.1816V25.2817C52.4865 25.9406 51.1014 26.27 49.3794 26.27C47.6873 26.27 46.3584 25.7497 45.3926 24.709C44.4343 23.6608 43.9551 22.1896 43.9551 20.2954C43.9551 18.506 44.4829 17.0498 45.5386 15.9268C46.6017 14.7962 47.9194 14.231 49.4917 14.231C51.064 14.231 52.2806 14.7363 53.1416 15.7471C54.0026 16.7578 54.4331 18.1616 54.4331 19.9585V20.958ZM51.9175 19.1162C51.91 18.1803 51.6891 17.4541 51.2549 16.9375C50.8206 16.4134 50.2217 16.1514 49.458 16.1514C48.7093 16.1514 48.0729 16.4246 47.5488 16.9712C47.0322 17.5177 46.714 18.2327 46.5943 19.1162H51.9175Z" stroke="#223647" stroke-width="0.2"/>
<path d="M67.3818 25.0796C67.3818 29.3022 65.2593 31.4136 61.0142 31.4136C59.5168 31.4136 58.2103 31.1628 57.0947 30.6611V28.2803C58.3526 28.999 59.5467 29.3584 60.6773 29.3584C63.41 29.3584 64.7764 28.0145 64.7764 25.3267V24.0688H64.7315C63.8705 25.5363 62.5752 26.27 60.8457 26.27C59.4456 26.27 58.3151 25.7609 57.4541 24.7427C56.6006 23.717 56.1738 22.3431 56.1738 20.6211C56.1738 18.667 56.6343 17.1134 57.5552 15.9604C58.4761 14.8075 59.7414 14.231 61.3511 14.231C62.8709 14.231 63.9977 14.8524 64.7315 16.0952H64.7764V14.5005H67.3818V25.0796ZM64.7988 20.7334V19.2397C64.7988 18.4312 64.5293 17.7424 63.9902 17.1733C63.4587 16.5968 62.7923 16.3086 61.9912 16.3086C61.0029 16.3086 60.228 16.6755 59.6665 17.4092C59.1125 18.1354 58.8355 19.1536 58.8355 20.4639C58.8355 21.5944 59.1012 22.5003 59.6328 23.1816C60.1719 23.8555 60.8832 24.1924 61.7666 24.1924C62.6651 24.1924 63.395 23.8704 63.9566 23.2266C64.5181 22.5752 64.7988 21.7441 64.7988 20.7334Z" stroke="#223647" stroke-width="0.2"/>
<path d="M72.0869 12.0859C71.6602 12.0859 71.2933 11.9474 70.9863 11.6704C70.6868 11.3934 70.5371 11.0415 70.5371 10.6147C70.5371 10.188 70.6868 9.83236 70.9863 9.54785C71.2933 9.26335 71.6602 9.12109 72.0869 9.12109C72.5286 9.12109 72.903 9.26335 73.21 9.54785C73.5169 9.83236 73.6704 10.188 73.6704 10.6147C73.6704 11.019 73.5169 11.3672 73.21 11.6592C72.903 11.9437 72.5286 12.0859 72.0869 12.0859ZM73.3784 26.0005H70.7729V14.5005H73.3784V26.0005Z" stroke="#223647" stroke-width="0.2"/>
<path d="M76.0742 25.6411V23.2266C77.0475 23.9678 78.1219 24.3384 79.2974 24.3384C80.8696 24.3384 81.6558 23.8742 81.6558 22.9458C81.6558 22.6838 81.5884 22.4629 81.4536 22.2832C81.3189 22.096 81.1354 21.9313 80.9033 21.7891C80.6787 21.6468 80.4092 21.5195 80.0947 21.4072C79.7878 21.2949 79.4434 21.1676 79.0615 21.0254C78.5899 20.8382 78.1631 20.6398 77.7813 20.4302C77.4069 20.2205 77.0925 19.9847 76.8379 19.7227C76.5908 19.4531 76.4037 19.1499 76.2764 18.813C76.1491 18.4761 76.0855 18.083 76.0855 17.6338C76.0855 17.0798 76.2165 16.5931 76.4785 16.1738C76.7406 15.7471 77.0925 15.3914 77.5342 15.1069C77.9759 14.8149 78.4776 14.5978 79.0391 14.4556C79.6006 14.3058 80.1808 14.231 80.7798 14.231C81.8429 14.231 82.7938 14.3919 83.6323 14.7139V16.9937C82.8237 16.4396 81.8954 16.1626 80.8472 16.1626C80.5178 16.1626 80.2183 16.1963 79.9487 16.2637C79.6867 16.3311 79.4621 16.4246 79.2749 16.5444C79.0877 16.6642 78.9417 16.8102 78.8369 16.9824C78.7321 17.1471 78.6797 17.3306 78.6797 17.5327C78.6797 17.7798 78.7321 17.9894 78.8369 18.1616C78.9417 18.3338 79.0952 18.4873 79.2974 18.6221C79.507 18.7493 79.7541 18.8691 80.0386 18.9814C80.3306 19.0863 80.6637 19.2023 81.0381 19.3296C81.5322 19.5317 81.974 19.7376 82.3633 19.9473C82.7601 20.1569 83.097 20.3965 83.374 20.666C83.6511 20.9281 83.8644 21.235 84.0142 21.5869C84.1639 21.9313 84.2388 22.3431 84.2388 22.8223C84.2388 23.4062 84.104 23.9154 83.8345 24.3496C83.565 24.7839 83.2056 25.1432 82.7564 25.4277C82.3071 25.7122 81.7868 25.9219 81.1953 26.0566C80.6113 26.1989 79.9937 26.27 79.3423 26.27C78.0845 26.27 76.9951 26.0604 76.0742 25.6411Z" stroke="#223647" stroke-width="0.2"/>
<path d="M92.7852 25.877C92.2761 26.1315 91.606 26.2588 90.7749 26.2588C88.5438 26.2588 87.4282 25.1882 87.4282 23.0469V16.5444H85.5078V14.5005H87.4282V11.8389L90.0337 11.0977V14.5005H92.7852V16.5444H90.0337V22.2944C90.0337 22.9757 90.1572 23.4624 90.4043 23.7544C90.6514 24.0464 91.0632 24.1924 91.6397 24.1924C92.0814 24.1924 92.4632 24.0651 92.7852 23.8105V25.877Z" stroke="#223647" stroke-width="0.2"/>
<path d="M96.3447 12.0859C95.918 12.0859 95.5511 11.9474 95.2441 11.6704C94.9447 11.3934 94.7949 11.0415 94.7949 10.6147C94.7949 10.188 94.9447 9.83236 95.2441 9.54785C95.5511 9.26335 95.918 9.12109 96.3447 9.12109C96.7865 9.12109 97.1608 9.26335 97.4678 9.54785C97.7747 9.83236 97.9282 10.188 97.9282 10.6147C97.9282 11.019 97.7747 11.3672 97.4678 11.6592C97.1608 11.9437 96.7865 12.0859 96.3447 12.0859ZM97.6362 26.0005H95.0308V14.5005H97.6362V26.0005Z" stroke="#223647" stroke-width="0.2"/>
<path d="M107.554 11.0977C107.202 10.8955 106.801 10.7944 106.352 10.7944C105.087 10.7944 104.454 11.5094 104.454 12.9395V14.5005H107.127V16.5444H104.465V26.0005H101.86V16.5444H99.8945V14.5005H101.86V12.6362C101.86 11.4233 102.257 10.4688 103.05 9.77246C103.844 9.06868 104.836 8.7168 106.026 8.7168C106.67 8.7168 107.179 8.78792 107.554 8.93018V11.0977Z" stroke="#223647" stroke-width="0.2"/>
<path d="M119.367 14.5005L114.179 27.8423C113.101 30.2231 111.588 31.4136 109.642 31.4136C109.095 31.4136 108.638 31.3649 108.271 31.2676V29.1001C108.683 29.2349 109.058 29.3022 109.395 29.3022C110.368 29.3022 111.094 28.8231 111.573 27.8647L112.348 25.978L107.777 14.5005H110.664L113.404 22.856C113.434 22.9608 113.501 23.2378 113.606 23.687H113.662C113.7 23.5148 113.767 23.2453 113.864 22.8784L116.739 14.5005H119.367Z" stroke="#223647" stroke-width="0.2"/>
</mask>
<g mask="url(#mask3_205_344)">
<path d="M76.0742 25.6411V23.2266C77.0475 23.9678 78.1219 24.3384 79.2974 24.3384C80.8696 24.3384 81.6558 23.8742 81.6558 22.9458C81.6558 22.6838 81.5884 22.4629 81.4536 22.2832C81.3189 22.096 81.1354 21.9313 80.9033 21.7891C80.6787 21.6468 80.4092 21.5195 80.0947 21.4072C79.7878 21.2949 79.4434 21.1676 79.0615 21.0254C78.5899 20.8382 78.1631 20.6398 77.7813 20.4302C77.4069 20.2205 77.0925 19.9847 76.8379 19.7227C76.5908 19.4531 76.4037 19.1499 76.2764 18.813C76.1491 18.4761 76.0855 18.083 76.0855 17.6338C76.0855 17.0798 76.2165 16.5931 76.4785 16.1738C76.7406 15.7471 77.0925 15.3914 77.5342 15.1069C77.9759 14.8149 78.4776 14.5978 79.0391 14.4556C79.6006 14.3058 80.1808 14.231 80.7798 14.231C81.8429 14.231 82.7938 14.3919 83.6323 14.7139V16.9937C82.8237 16.4396 81.8954 16.1626 80.8472 16.1626C80.5178 16.1626 80.2183 16.1963 79.9487 16.2637C79.6867 16.3311 79.4621 16.4246 79.2749 16.5444C79.0877 16.6642 78.9417 16.8102 78.8369 16.9824C78.7321 17.1471 78.6797 17.3306 78.6797 17.5327C78.6797 17.7798 78.7321 17.9894 78.8369 18.1616C78.9417 18.3338 79.0952 18.4873 79.2974 18.6221C79.507 18.7493 79.7541 18.8691 80.0386 18.9814C80.3306 19.0863 80.6637 19.2023 81.0381 19.3296C81.5322 19.5317 81.974 19.7376 82.3633 19.9473C82.7601 20.1569 83.097 20.3965 83.374 20.666C83.6511 20.9281 83.8644 21.235 84.0142 21.5869C84.1639 21.9313 84.2388 22.3431 84.2388 22.8223C84.2388 23.4062 84.104 23.9154 83.8345 24.3496C83.565 24.7839 83.2056 25.1432 82.7564 25.4277C82.3071 25.7122 81.7868 25.9219 81.1953 26.0566C80.6113 26.1989 79.9937 26.27 79.3423 26.27C78.0845 26.27 76.9951 26.0604 76.0742 25.6411Z" stroke="black" stroke-width="0.2"/>
</g>
<mask id="mask4_205_344" style="mask-type:luminance" maskUnits="userSpaceOnUse" x="42" y="7" width="79" height="25">
<path d="M119.955 7.7168H42.9551V31.7168H119.955V7.7168Z" fill="white" stroke="#223647" stroke-width="0.2"/>
<path d="M54.4331 20.958H46.5943C46.6242 22.0212 46.9499 22.841 47.5713 23.4175C48.2002 23.994 49.0612 24.2822 50.1543 24.2822C51.3822 24.2822 52.509 23.9154 53.5347 23.1816V25.2817C52.4865 25.9406 51.1014 26.27 49.3794 26.27C47.6873 26.27 46.3584 25.7497 45.3926 24.709C44.4343 23.6608 43.9551 22.1896 43.9551 20.2954C43.9551 18.506 44.4829 17.0498 45.5386 15.9268C46.6017 14.7962 47.9194 14.231 49.4917 14.231C51.064 14.231 52.2806 14.7363 53.1416 15.7471C54.0026 16.7578 54.4331 18.1616 54.4331 19.9585V20.958ZM51.9175 19.1162C51.91 18.1803 51.6891 17.4541 51.2549 16.9375C50.8206 16.4134 50.2217 16.1514 49.458 16.1514C48.7093 16.1514 48.0729 16.4246 47.5488 16.9712C47.0322 17.5177 46.714 18.2327 46.5943 19.1162H51.9175Z" stroke="#223647" stroke-width="0.2"/>
<path d="M67.3818 25.0796C67.3818 29.3022 65.2593 31.4136 61.0142 31.4136C59.5168 31.4136 58.2103 31.1628 57.0947 30.6611V28.2803C58.3526 28.999 59.5467 29.3584 60.6773 29.3584C63.41 29.3584 64.7764 28.0145 64.7764 25.3267V24.0688H64.7315C63.8705 25.5363 62.5752 26.27 60.8457 26.27C59.4456 26.27 58.3151 25.7609 57.4541 24.7427C56.6006 23.717 56.1738 22.3431 56.1738 20.6211C56.1738 18.667 56.6343 17.1134 57.5552 15.9604C58.4761 14.8075 59.7414 14.231 61.3511 14.231C62.8709 14.231 63.9977 14.8524 64.7315 16.0952H64.7764V14.5005H67.3818V25.0796ZM64.7988 20.7334V19.2397C64.7988 18.4312 64.5293 17.7424 63.9902 17.1733C63.4587 16.5968 62.7923 16.3086 61.9912 16.3086C61.0029 16.3086 60.228 16.6755 59.6665 17.4092C59.1125 18.1354 58.8355 19.1536 58.8355 20.4639C58.8355 21.5944 59.1012 22.5003 59.6328 23.1816C60.1719 23.8555 60.8832 24.1924 61.7666 24.1924C62.6651 24.1924 63.395 23.8704 63.9566 23.2266C64.5181 22.5752 64.7988 21.7441 64.7988 20.7334Z" stroke="#223647" stroke-width="0.2"/>
<path d="M72.0869 12.0859C71.6602 12.0859 71.2933 11.9474 70.9863 11.6704C70.6868 11.3934 70.5371 11.0415 70.5371 10.6147C70.5371 10.188 70.6868 9.83236 70.9863 9.54785C71.2933 9.26335 71.6602 9.12109 72.0869 9.12109C72.5286 9.12109 72.903 9.26335 73.21 9.54785C73.5169 9.83236 73.6704 10.188 73.6704 10.6147C73.6704 11.019 73.5169 11.3672 73.21 11.6592C72.903 11.9437 72.5286 12.0859 72.0869 12.0859ZM73.3784 26.0005H70.7729V14.5005H73.3784V26.0005Z" stroke="#223647" stroke-width="0.2"/>
<path d="M76.0742 25.6411V23.2266C77.0475 23.9678 78.1219 24.3384 79.2974 24.3384C80.8696 24.3384 81.6558 23.8742 81.6558 22.9458C81.6558 22.6838 81.5884 22.4629 81.4536 22.2832C81.3189 22.096 81.1354 21.9313 80.9033 21.7891C80.6787 21.6468 80.4092 21.5195 80.0947 21.4072C79.7878 21.2949 79.4434 21.1676 79.0615 21.0254C78.5899 20.8382 78.1631 20.6398 77.7813 20.4302C77.4069 20.2205 77.0925 19.9847 76.8379 19.7227C76.5908 19.4531 76.4037 19.1499 76.2764 18.813C76.1491 18.4761 76.0855 18.083 76.0855 17.6338C76.0855 17.0798 76.2165 16.5931 76.4785 16.1738C76.7406 15.7471 77.0925 15.3914 77.5342 15.1069C77.9759 14.8149 78.4776 14.5978 79.0391 14.4556C79.6006 14.3058 80.1808 14.231 80.7798 14.231C81.8429 14.231 82.7938 14.3919 83.6323 14.7139V16.9937C82.8237 16.4396 81.8954 16.1626 80.8472 16.1626C80.5178 16.1626 80.2183 16.1963 79.9487 16.2637C79.6867 16.3311 79.4621 16.4246 79.2749 16.5444C79.0877 16.6642 78.9417 16.8102 78.8369 16.9824C78.7321 17.1471 78.6797 17.3306 78.6797 17.5327C78.6797 17.7798 78.7321 17.9894 78.8369 18.1616C78.9417 18.3338 79.0952 18.4873 79.2974 18.6221C79.507 18.7493 79.7541 18.8691 80.0386 18.9814C80.3306 19.0863 80.6637 19.2023 81.0381 19.3296C81.5322 19.5317 81.974 19.7376 82.3633 19.9473C82.7601 20.1569 83.097 20.3965 83.374 20.666C83.6511 20.9281 83.8644 21.235 84.0142 21.5869C84.1639 21.9313 84.2388 22.3431 84.2388 22.8223C84.2388 23.4062 84.104 23.9154 83.8345 24.3496C83.565 24.7839 83.2056 25.1432 82.7564 25.4277C82.3071 25.7122 81.7868 25.9219 81.1953 26.0566C80.6113 26.1989 79.9937 26.27 79.3423 26.27C78.0845 26.27 76.9951 26.0604 76.0742 25.6411Z" stroke="#223647" stroke-width="0.2"/>
<path d="M92.7852 25.877C92.2761 26.1315 91.606 26.2588 90.7749 26.2588C88.5438 26.2588 87.4282 25.1882 87.4282 23.0469V16.5444H85.5078V14.5005H87.4282V11.8389L90.0337 11.0977V14.5005H92.7852V16.5444H90.0337V22.2944C90.0337 22.9757 90.1572 23.4624 90.4043 23.7544C90.6514 24.0464 91.0632 24.1924 91.6397 24.1924C92.0814 24.1924 92.4632 24.0651 92.7852 23.8105V25.877Z" stroke="#223647" stroke-width="0.2"/>
<path d="M96.3447 12.0859C95.918 12.0859 95.5511 11.9474 95.2441 11.6704C94.9447 11.3934 94.7949 11.0415 94.7949 10.6147C94.7949 10.188 94.9447 9.83236 95.2441 9.54785C95.5511 9.26335 95.918 9.12109 96.3447 9.12109C96.7865 9.12109 97.1608 9.26335 97.4678 9.54785C97.7747 9.83236 97.9282 10.188 97.9282 10.6147C97.9282 11.019 97.7747 11.3672 97.4678 11.6592C97.1608 11.9437 96.7865 12.0859 96.3447 12.0859ZM97.6362 26.0005H95.0308V14.5005H97.6362V26.0005Z" stroke="#223647" stroke-width="0.2"/>
<path d="M107.554 11.0977C107.202 10.8955 106.801 10.7944 106.352 10.7944C105.087 10.7944 104.454 11.5094 104.454 12.9395V14.5005H107.127V16.5444H104.465V26.0005H101.86V16.5444H99.8945V14.5005H101.86V12.6362C101.86 11.4233 102.257 10.4688 103.05 9.77246C103.844 9.06868 104.836 8.7168 106.026 8.7168C106.67 8.7168 107.179 8.78792 107.554 8.93018V11.0977Z" stroke="#223647" stroke-width="0.2"/>
<path d="M119.367 14.5005L114.179 27.8423C113.101 30.2231 111.588 31.4136 109.642 31.4136C109.095 31.4136 108.638 31.3649 108.271 31.2676V29.1001C108.683 29.2349 109.058 29.3022 109.395 29.3022C110.368 29.3022 111.094 28.8231 111.573 27.8647L112.348 25.978L107.777 14.5005H110.664L113.404 22.856C113.434 22.9608 113.501 23.2378 113.606 23.687H113.662C113.7 23.5148 113.767 23.2453 113.864 22.8784L116.739 14.5005H119.367Z" stroke="#223647" stroke-width="0.2"/>
</mask>
<g mask="url(#mask4_205_344)">
<path d="M92.7852 25.877C92.2761 26.1315 91.606 26.2588 90.7749 26.2588C88.5438 26.2588 87.4282 25.1882 87.4282 23.0469V16.5444H85.5078V14.5005H87.4282V11.8389L90.0337 11.0977V14.5005H92.7852V16.5444H90.0337V22.2944C90.0337 22.9757 90.1572 23.4624 90.4043 23.7544C90.6514 24.0464 91.0632 24.1924 91.6397 24.1924C92.0814 24.1924 92.4632 24.0651 92.7852 23.8105V25.877Z" stroke="black" stroke-width="0.2"/>
</g>
<mask id="mask5_205_344" style="mask-type:luminance" maskUnits="userSpaceOnUse" x="42" y="7" width="79" height="25">
<path d="M119.955 7.7168H42.9551V31.7168H119.955V7.7168Z" fill="white" stroke="#223647" stroke-width="0.2"/>
<path d="M54.4331 20.958H46.5943C46.6242 22.0212 46.9499 22.841 47.5713 23.4175C48.2002 23.994 49.0612 24.2822 50.1543 24.2822C51.3822 24.2822 52.509 23.9154 53.5347 23.1816V25.2817C52.4865 25.9406 51.1014 26.27 49.3794 26.27C47.6873 26.27 46.3584 25.7497 45.3926 24.709C44.4343 23.6608 43.9551 22.1896 43.9551 20.2954C43.9551 18.506 44.4829 17.0498 45.5386 15.9268C46.6017 14.7962 47.9194 14.231 49.4917 14.231C51.064 14.231 52.2806 14.7363 53.1416 15.7471C54.0026 16.7578 54.4331 18.1616 54.4331 19.9585V20.958ZM51.9175 19.1162C51.91 18.1803 51.6891 17.4541 51.2549 16.9375C50.8206 16.4134 50.2217 16.1514 49.458 16.1514C48.7093 16.1514 48.0729 16.4246 47.5488 16.9712C47.0322 17.5177 46.714 18.2327 46.5943 19.1162H51.9175Z" stroke="#223647" stroke-width="0.2"/>
<path d="M67.3818 25.0796C67.3818 29.3022 65.2593 31.4136 61.0142 31.4136C59.5168 31.4136 58.2103 31.1628 57.0947 30.6611V28.2803C58.3526 28.999 59.5467 29.3584 60.6773 29.3584C63.41 29.3584 64.7764 28.0145 64.7764 25.3267V24.0688H64.7315C63.8705 25.5363 62.5752 26.27 60.8457 26.27C59.4456 26.27 58.3151 25.7609 57.4541 24.7427C56.6006 23.717 56.1738 22.3431 56.1738 20.6211C56.1738 18.667 56.6343 17.1134 57.5552 15.9604C58.4761 14.8075 59.7414 14.231 61.3511 14.231C62.8709 14.231 63.9977 14.8524 64.7315 16.0952H64.7764V14.5005H67.3818V25.0796ZM64.7988 20.7334V19.2397C64.7988 18.4312 64.5293 17.7424 63.9902 17.1733C63.4587 16.5968 62.7923 16.3086 61.9912 16.3086C61.0029 16.3086 60.228 16.6755 59.6665 17.4092C59.1125 18.1354 58.8355 19.1536 58.8355 20.4639C58.8355 21.5944 59.1012 22.5003 59.6328 23.1816C60.1719 23.8555 60.8832 24.1924 61.7666 24.1924C62.6651 24.1924 63.395 23.8704 63.9566 23.2266C64.5181 22.5752 64.7988 21.7441 64.7988 20.7334Z" stroke="#223647" stroke-width="0.2"/>
<path d="M72.0869 12.0859C71.6602 12.0859 71.2933 11.9474 70.9863 11.6704C70.6868 11.3934 70.5371 11.0415 70.5371 10.6147C70.5371 10.188 70.6868 9.83236 70.9863 9.54785C71.2933 9.26335 71.6602 9.12109 72.0869 9.12109C72.5286 9.12109 72.903 9.26335 73.21 9.54785C73.5169 9.83236 73.6704 10.188 73.6704 10.6147C73.6704 11.019 73.5169 11.3672 73.21 11.6592C72.903 11.9437 72.5286 12.0859 72.0869 12.0859ZM73.3784 26.0005H70.7729V14.5005H73.3784V26.0005Z" stroke="#223647" stroke-width="0.2"/>
<path d="M76.0742 25.6411V23.2266C77.0475 23.9678 78.1219 24.3384 79.2974 24.3384C80.8696 24.3384 81.6558 23.8742 81.6558 22.9458C81.6558 22.6838 81.5884 22.4629 81.4536 22.2832C81.3189 22.096 81.1354 21.9313 80.9033 21.7891C80.6787 21.6468 80.4092 21.5195 80.0947 21.4072C79.7878 21.2949 79.4434 21.1676 79.0615 21.0254C78.5899 20.8382 78.1631 20.6398 77.7813 20.4302C77.4069 20.2205 77.0925 19.9847 76.8379 19.7227C76.5908 19.4531 76.4037 19.1499 76.2764 18.813C76.1491 18.4761 76.0855 18.083 76.0855 17.6338C76.0855 17.0798 76.2165 16.5931 76.4785 16.1738C76.7406 15.7471 77.0925 15.3914 77.5342 15.1069C77.9759 14.8149 78.4776 14.5978 79.0391 14.4556C79.6006 14.3058 80.1808 14.231 80.7798 14.231C81.8429 14.231 82.7938 14.3919 83.6323 14.7139V16.9937C82.8237 16.4396 81.8954 16.1626 80.8472 16.1626C80.5178 16.1626 80.2183 16.1963 79.9487 16.2637C79.6867 16.3311 79.4621 16.4246 79.2749 16.5444C79.0877 16.6642 78.9417 16.8102 78.8369 16.9824C78.7321 17.1471 78.6797 17.3306 78.6797 17.5327C78.6797 17.7798 78.7321 17.9894 78.8369 18.1616C78.9417 18.3338 79.0952 18.4873 79.2974 18.6221C79.507 18.7493 79.7541 18.8691 80.0386 18.9814C80.3306 19.0863 80.6637 19.2023 81.0381 19.3296C81.5322 19.5317 81.974 19.7376 82.3633 19.9473C82.7601 20.1569 83.097 20.3965 83.374 20.666C83.6511 20.9281 83.8644 21.235 84.0142 21.5869C84.1639 21.9313 84.2388 22.3431 84.2388 22.8223C84.2388 23.4062 84.104 23.9154 83.8345 24.3496C83.565 24.7839 83.2056 25.1432 82.7564 25.4277C82.3071 25.7122 81.7868 25.9219 81.1953 26.0566C80.6113 26.1989 79.9937 26.27 79.3423 26.27C78.0845 26.27 76.9951 26.0604 76.0742 25.6411Z" stroke="#223647" stroke-width="0.2"/>
<path d="M92.7852 25.877C92.2761 26.1315 91.606 26.2588 90.7749 26.2588C88.5438 26.2588 87.4282 25.1882 87.4282 23.0469V16.5444H85.5078V14.5005H87.4282V11.8389L90.0337 11.0977V14.5005H92.7852V16.5444H90.0337V22.2944C90.0337 22.9757 90.1572 23.4624 90.4043 23.7544C90.6514 24.0464 91.0632 24.1924 91.6397 24.1924C92.0814 24.1924 92.4632 24.0651 92.7852 23.8105V25.877Z" stroke="#223647" stroke-width="0.2"/>
<path d="M96.3447 12.0859C95.918 12.0859 95.5511 11.9474 95.2441 11.6704C94.9447 11.3934 94.7949 11.0415 94.7949 10.6147C94.7949 10.188 94.9447 9.83236 95.2441 9.54785C95.5511 9.26335 95.918 9.12109 96.3447 9.12109C96.7865 9.12109 97.1608 9.26335 97.4678 9.54785C97.7747 9.83236 97.9282 10.188 97.9282 10.6147C97.9282 11.019 97.7747 11.3672 97.4678 11.6592C97.1608 11.9437 96.7865 12.0859 96.3447 12.0859ZM97.6362 26.0005H95.0308V14.5005H97.6362V26.0005Z" stroke="#223647" stroke-width="0.2"/>
<path d="M107.554 11.0977C107.202 10.8955 106.801 10.7944 106.352 10.7944C105.087 10.7944 104.454 11.5094 104.454 12.9395V14.5005H107.127V16.5444H104.465V26.0005H101.86V16.5444H99.8945V14.5005H101.86V12.6362C101.86 11.4233 102.257 10.4688 103.05 9.77246C103.844 9.06868 104.836 8.7168 106.026 8.7168C106.67 8.7168 107.179 8.78792 107.554 8.93018V11.0977Z" stroke="#223647" stroke-width="0.2"/>
<path d="M119.367 14.5005L114.179 27.8423C113.101 30.2231 111.588 31.4136 109.642 31.4136C109.095 31.4136 108.638 31.3649 108.271 31.2676V29.1001C108.683 29.2349 109.058 29.3022 109.395 29.3022C110.368 29.3022 111.094 28.8231 111.573 27.8647L112.348 25.978L107.777 14.5005H110.664L113.404 22.856C113.434 22.9608 113.501 23.2378 113.606 23.687H113.662C113.7 23.5148 113.767 23.2453 113.864 22.8784L116.739 14.5005H119.367Z" stroke="#223647" stroke-width="0.2"/>
</mask>
<g mask="url(#mask5_205_344)">
<path d="M96.3447 12.0859C95.918 12.0859 95.5511 11.9474 95.2441 11.6704C94.9447 11.3934 94.7949 11.0415 94.7949 10.6147C94.7949 10.188 94.9447 9.83236 95.2441 9.54785C95.5511 9.26335 95.918 9.12109 96.3447 9.12109C96.7865 9.12109 97.1608 9.26335 97.4678 9.54785C97.7747 9.83236 97.9282 10.188 97.9282 10.6147C97.9282 11.019 97.7747 11.3672 97.4678 11.6592C97.1608 11.9437 96.7865 12.0859 96.3447 12.0859ZM97.6362 26.0005H95.0308V14.5005H97.6362V26.0005Z" stroke="black" stroke-width="0.2"/>
</g>
<mask id="mask6_205_344" style="mask-type:luminance" maskUnits="userSpaceOnUse" x="42" y="7" width="79" height="25">
<path d="M119.955 7.7168H42.9551V31.7168H119.955V7.7168Z" fill="white" stroke="#223647" stroke-width="0.2"/>
<path d="M54.4331 20.958H46.5943C46.6242 22.0212 46.9499 22.841 47.5713 23.4175C48.2002 23.994 49.0612 24.2822 50.1543 24.2822C51.3822 24.2822 52.509 23.9154 53.5347 23.1816V25.2817C52.4865 25.9406 51.1014 26.27 49.3794 26.27C47.6873 26.27 46.3584 25.7497 45.3926 24.709C44.4343 23.6608 43.9551 22.1896 43.9551 20.2954C43.9551 18.506 44.4829 17.0498 45.5386 15.9268C46.6017 14.7962 47.9194 14.231 49.4917 14.231C51.064 14.231 52.2806 14.7363 53.1416 15.7471C54.0026 16.7578 54.4331 18.1616 54.4331 19.9585V20.958ZM51.9175 19.1162C51.91 18.1803 51.6891 17.4541 51.2549 16.9375C50.8206 16.4134 50.2217 16.1514 49.458 16.1514C48.7093 16.1514 48.0729 16.4246 47.5488 16.9712C47.0322 17.5177 46.714 18.2327 46.5943 19.1162H51.9175Z" stroke="#223647" stroke-width="0.2"/>
<path d="M67.3818 25.0796C67.3818 29.3022 65.2593 31.4136 61.0142 31.4136C59.5168 31.4136 58.2103 31.1628 57.0947 30.6611V28.2803C58.3526 28.999 59.5467 29.3584 60.6773 29.3584C63.41 29.3584 64.7764 28.0145 64.7764 25.3267V24.0688H64.7315C63.8705 25.5363 62.5752 26.27 60.8457 26.27C59.4456 26.27 58.3151 25.7609 57.4541 24.7427C56.6006 23.717 56.1738 22.3431 56.1738 20.6211C56.1738 18.667 56.6343 17.1134 57.5552 15.9604C58.4761 14.8075 59.7414 14.231 61.3511 14.231C62.8709 14.231 63.9977 14.8524 64.7315 16.0952H64.7764V14.5005H67.3818V25.0796ZM64.7988 20.7334V19.2397C64.7988 18.4312 64.5293 17.7424 63.9902 17.1733C63.4587 16.5968 62.7923 16.3086 61.9912 16.3086C61.0029 16.3086 60.228 16.6755 59.6665 17.4092C59.1125 18.1354 58.8355 19.1536 58.8355 20.4639C58.8355 21.5944 59.1012 22.5003 59.6328 23.1816C60.1719 23.8555 60.8832 24.1924 61.7666 24.1924C62.6651 24.1924 63.395 23.8704 63.9566 23.2266C64.5181 22.5752 64.7988 21.7441 64.7988 20.7334Z" stroke="#223647" stroke-width="0.2"/>
<path d="M72.0869 12.0859C71.6602 12.0859 71.2933 11.9474 70.9863 11.6704C70.6868 11.3934 70.5371 11.0415 70.5371 10.6147C70.5371 10.188 70.6868 9.83236 70.9863 9.54785C71.2933 9.26335 71.6602 9.12109 72.0869 9.12109C72.5286 9.12109 72.903 9.26335 73.21 9.54785C73.5169 9.83236 73.6704 10.188 73.6704 10.6147C73.6704 11.019 73.5169 11.3672 73.21 11.6592C72.903 11.9437 72.5286 12.0859 72.0869 12.0859ZM73.3784 26.0005H70.7729V14.5005H73.3784V26.0005Z" stroke="#223647" stroke-width="0.2"/>
<path d="M76.0742 25.6411V23.2266C77.0475 23.9678 78.1219 24.3384 79.2974 24.3384C80.8696 24.3384 81.6558 23.8742 81.6558 22.9458C81.6558 22.6838 81.5884 22.4629 81.4536 22.2832C81.3189 22.096 81.1354 21.9313 80.9033 21.7891C80.6787 21.6468 80.4092 21.5195 80.0947 21.4072C79.7878 21.2949 79.4434 21.1676 79.0615 21.0254C78.5899 20.8382 78.1631 20.6398 77.7813 20.4302C77.4069 20.2205 77.0925 19.9847 76.8379 19.7227C76.5908 19.4531 76.4037 19.1499 76.2764 18.813C76.1491 18.4761 76.0855 18.083 76.0855 17.6338C76.0855 17.0798 76.2165 16.5931 76.4785 16.1738C76.7406 15.7471 77.0925 15.3914 77.5342 15.1069C77.9759 14.8149 78.4776 14.5978 79.0391 14.4556C79.6006 14.3058 80.1808 14.231 80.7798 14.231C81.8429 14.231 82.7938 14.3919 83.6323 14.7139V16.9937C82.8237 16.4396 81.8954 16.1626 80.8472 16.1626C80.5178 16.1626 80.2183 16.1963 79.9487 16.2637C79.6867 16.3311 79.4621 16.4246 79.2749 16.5444C79.0877 16.6642 78.9417 16.8102 78.8369 16.9824C78.7321 17.1471 78.6797 17.3306 78.6797 17.5327C78.6797 17.7798 78.7321 17.9894 78.8369 18.1616C78.9417 18.3338 79.0952 18.4873 79.2974 18.6221C79.507 18.7493 79.7541 18.8691 80.0386 18.9814C80.3306 19.0863 80.6637 19.2023 81.0381 19.3296C81.5322 19.5317 81.974 19.7376 82.3633 19.9473C82.7601 20.1569 83.097 20.3965 83.374 20.666C83.6511 20.9281 83.8644 21.235 84.0142 21.5869C84.1639 21.9313 84.2388 22.3431 84.2388 22.8223C84.2388 23.4062 84.104 23.9154 83.8345 24.3496C83.565 24.7839 83.2056 25.1432 82.7564 25.4277C82.3071 25.7122 81.7868 25.9219 81.1953 26.0566C80.6113 26.1989 79.9937 26.27 79.3423 26.27C78.0845 26.27 76.9951 26.0604 76.0742 25.6411Z" stroke="#223647" stroke-width="0.2"/>
<path d="M92.7852 25.877C92.2761 26.1315 91.606 26.2588 90.7749 26.2588C88.5438 26.2588 87.4282 25.1882 87.4282 23.0469V16.5444H85.5078V14.5005H87.4282V11.8389L90.0337 11.0977V14.5005H92.7852V16.5444H90.0337V22.2944C90.0337 22.9757 90.1572 23.4624 90.4043 23.7544C90.6514 24.0464 91.0632 24.1924 91.6397 24.1924C92.0814 24.1924 92.4632 24.0651 92.7852 23.8105V25.877Z" stroke="#223647" stroke-width="0.2"/>
<path d="M96.3447 12.0859C95.918 12.0859 95.5511 11.9474 95.2441 11.6704C94.9447 11.3934 94.7949 11.0415 94.7949 10.6147C94.7949 10.188 94.9447 9.83236 95.2441 9.54785C95.5511 9.26335 95.918 9.12109 96.3447 9.12109C96.7865 9.12109 97.1608 9.26335 97.4678 9.54785C97.7747 9.83236 97.9282 10.188 97.9282 10.6147C97.9282 11.019 97.7747 11.3672 97.4678 11.6592C97.1608 11.9437 96.7865 12.0859 96.3447 12.0859ZM97.6362 26.0005H95.0308V14.5005H97.6362V26.0005Z" stroke="#223647" stroke-width="0.2"/>
<path d="M107.554 11.0977C107.202 10.8955 106.801 10.7944 106.352 10.7944C105.087 10.7944 104.454 11.5094 104.454 12.9395V14.5005H107.127V16.5444H104.465V26.0005H101.86V16.5444H99.8945V14.5005H101.86V12.6362C101.86 11.4233 102.257 10.4688 103.05 9.77246C103.844 9.06868 104.836 8.7168 106.026 8.7168C106.67 8.7168 107.179 8.78792 107.554 8.93018V11.0977Z" stroke="#223647" stroke-width="0.2"/>
<path d="M119.367 14.5005L114.179 27.8423C113.101 30.2231 111.588 31.4136 109.642 31.4136C109.095 31.4136 108.638 31.3649 108.271 31.2676V29.1001C108.683 29.2349 109.058 29.3022 109.395 29.3022C110.368 29.3022 111.094 28.8231 111.573 27.8647L112.348 25.978L107.777 14.5005H110.664L113.404 22.856C113.434 22.9608 113.501 23.2378 113.606 23.687H113.662C113.7 23.5148 113.767 23.2453 113.864 22.8784L116.739 14.5005H119.367Z" stroke="#223647" stroke-width="0.2"/>
</mask>
<g mask="url(#mask6_205_344)">
<path d="M107.554 11.0977C107.202 10.8955 106.801 10.7944 106.352 10.7944C105.087 10.7944 104.454 11.5094 104.454 12.9395V14.5005H107.127V16.5444H104.465V26.0005H101.86V16.5444H99.8945V14.5005H101.86V12.6362C101.86 11.4233 102.257 10.4688 103.05 9.77246C103.844 9.06868 104.836 8.7168 106.026 8.7168C106.67 8.7168 107.179 8.78792 107.554 8.93018V11.0977Z" stroke="black" stroke-width="0.2"/>
</g>
<mask id="mask7_205_344" style="mask-type:luminance" maskUnits="userSpaceOnUse" x="42" y="7" width="79" height="25">
<path d="M119.955 7.7168H42.9551V31.7168H119.955V7.7168Z" fill="white" stroke="#223647" stroke-width="0.2"/>
<path d="M54.4331 20.958H46.5943C46.6242 22.0212 46.9499 22.841 47.5713 23.4175C48.2002 23.994 49.0612 24.2822 50.1543 24.2822C51.3822 24.2822 52.509 23.9154 53.5347 23.1816V25.2817C52.4865 25.9406 51.1014 26.27 49.3794 26.27C47.6873 26.27 46.3584 25.7497 45.3926 24.709C44.4343 23.6608 43.9551 22.1896 43.9551 20.2954C43.9551 18.506 44.4829 17.0498 45.5386 15.9268C46.6017 14.7962 47.9194 14.231 49.4917 14.231C51.064 14.231 52.2806 14.7363 53.1416 15.7471C54.0026 16.7578 54.4331 18.1616 54.4331 19.9585V20.958ZM51.9175 19.1162C51.91 18.1803 51.6891 17.4541 51.2549 16.9375C50.8206 16.4134 50.2217 16.1514 49.458 16.1514C48.7093 16.1514 48.0729 16.4246 47.5488 16.9712C47.0322 17.5177 46.714 18.2327 46.5943 19.1162H51.9175Z" stroke="#223647" stroke-width="0.2"/>
<path d="M67.3818 25.0796C67.3818 29.3022 65.2593 31.4136 61.0142 31.4136C59.5168 31.4136 58.2103 31.1628 57.0947 30.6611V28.2803C58.3526 28.999 59.5467 29.3584 60.6773 29.3584C63.41 29.3584 64.7764 28.0145 64.7764 25.3267V24.0688H64.7315C63.8705 25.5363 62.5752 26.27 60.8457 26.27C59.4456 26.27 58.3151 25.7609 57.4541 24.7427C56.6006 23.717 56.1738 22.3431 56.1738 20.6211C56.1738 18.667 56.6343 17.1134 57.5552 15.9604C58.4761 14.8075 59.7414 14.231 61.3511 14.231C62.8709 14.231 63.9977 14.8524 64.7315 16.0952H64.7764V14.5005H67.3818V25.0796ZM64.7988 20.7334V19.2397C64.7988 18.4312 64.5293 17.7424 63.9902 17.1733C63.4587 16.5968 62.7923 16.3086 61.9912 16.3086C61.0029 16.3086 60.228 16.6755 59.6665 17.4092C59.1125 18.1354 58.8355 19.1536 58.8355 20.4639C58.8355 21.5944 59.1012 22.5003 59.6328 23.1816C60.1719 23.8555 60.8832 24.1924 61.7666 24.1924C62.6651 24.1924 63.395 23.8704 63.9566 23.2266C64.5181 22.5752 64.7988 21.7441 64.7988 20.7334Z" stroke="#223647" stroke-width="0.2"/>
<path d="M72.0869 12.0859C71.6602 12.0859 71.2933 11.9474 70.9863 11.6704C70.6868 11.3934 70.5371 11.0415 70.5371 10.6147C70.5371 10.188 70.6868 9.83236 70.9863 9.54785C71.2933 9.26335 71.6602 9.12109 72.0869 9.12109C72.5286 9.12109 72.903 9.26335 73.21 9.54785C73.5169 9.83236 73.6704 10.188 73.6704 10.6147C73.6704 11.019 73.5169 11.3672 73.21 11.6592C72.903 11.9437 72.5286 12.0859 72.0869 12.0859ZM73.3784 26.0005H70.7729V14.5005H73.3784V26.0005Z" stroke="#223647" stroke-width="0.2"/>
<path d="M76.0742 25.6411V23.2266C77.0475 23.9678 78.1219 24.3384 79.2974 24.3384C80.8696 24.3384 81.6558 23.8742 81.6558 22.9458C81.6558 22.6838 81.5884 22.4629 81.4536 22.2832C81.3189 22.096 81.1354 21.9313 80.9033 21.7891C80.6787 21.6468 80.4092 21.5195 80.0947 21.4072C79.7878 21.2949 79.4434 21.1676 79.0615 21.0254C78.5899 20.8382 78.1631 20.6398 77.7813 20.4302C77.4069 20.2205 77.0925 19.9847 76.8379 19.7227C76.5908 19.4531 76.4037 19.1499 76.2764 18.813C76.1491 18.4761 76.0855 18.083 76.0855 17.6338C76.0855 17.0798 76.2165 16.5931 76.4785 16.1738C76.7406 15.7471 77.0925 15.3914 77.5342 15.1069C77.9759 14.8149 78.4776 14.5978 79.0391 14.4556C79.6006 14.3058 80.1808 14.231 80.7798 14.231C81.8429 14.231 82.7938 14.3919 83.6323 14.7139V16.9937C82.8237 16.4396 81.8954 16.1626 80.8472 16.1626C80.5178 16.1626 80.2183 16.1963 79.9487 16.2637C79.6867 16.3311 79.4621 16.4246 79.2749 16.5444C79.0877 16.6642 78.9417 16.8102 78.8369 16.9824C78.7321 17.1471 78.6797 17.3306 78.6797 17.5327C78.6797 17.7798 78.7321 17.9894 78.8369 18.1616C78.9417 18.3338 79.0952 18.4873 79.2974 18.6221C79.507 18.7493 79.7541 18.8691 80.0386 18.9814C80.3306 19.0863 80.6637 19.2023 81.0381 19.3296C81.5322 19.5317 81.974 19.7376 82.3633 19.9473C82.7601 20.1569 83.097 20.3965 83.374 20.666C83.6511 20.9281 83.8644 21.235 84.0142 21.5869C84.1639 21.9313 84.2388 22.3431 84.2388 22.8223C84.2388 23.4062 84.104 23.9154 83.8345 24.3496C83.565 24.7839 83.2056 25.1432 82.7564 25.4277C82.3071 25.7122 81.7868 25.9219 81.1953 26.0566C80.6113 26.1989 79.9937 26.27 79.3423 26.27C78.0845 26.27 76.9951 26.0604 76.0742 25.6411Z" stroke="#223647" stroke-width="0.2"/>
<path d="M92.7852 25.877C92.2761 26.1315 91.606 26.2588 90.7749 26.2588C88.5438 26.2588 87.4282 25.1882 87.4282 23.0469V16.5444H85.5078V14.5005H87.4282V11.8389L90.0337 11.0977V14.5005H92.7852V16.5444H90.0337V22.2944C90.0337 22.9757 90.1572 23.4624 90.4043 23.7544C90.6514 24.0464 91.0632 24.1924 91.6397 24.1924C92.0814 24.1924 92.4632 24.0651 92.7852 23.8105V25.877Z" stroke="#223647" stroke-width="0.2"/>
<path d="M96.3447 12.0859C95.918 12.0859 95.5511 11.9474 95.2441 11.6704C94.9447 11.3934 94.7949 11.0415 94.7949 10.6147C94.7949 10.188 94.9447 9.83236 95.2441 9.54785C95.5511 9.26335 95.918 9.12109 96.3447 9.12109C96.7865 9.12109 97.1608 9.26335 97.4678 9.54785C97.7747 9.83236 97.9282 10.188 97.9282 10.6147C97.9282 11.019 97.7747 11.3672 97.4678 11.6592C97.1608 11.9437 96.7865 12.0859 96.3447 12.0859ZM97.6362 26.0005H95.0308V14.5005H97.6362V26.0005Z" stroke="#223647" stroke-width="0.2"/>
<path d="M107.554 11.0977C107.202 10.8955 106.801 10.7944 106.352 10.7944C105.087 10.7944 104.454 11.5094 104.454 12.9395V14.5005H107.127V16.5444H104.465V26.0005H101.86V16.5444H99.8945V14.5005H101.86V12.6362C101.86 11.4233 102.257 10.4688 103.05 9.77246C103.844 9.06868 104.836 8.7168 106.026 8.7168C106.67 8.7168 107.179 8.78792 107.554 8.93018V11.0977Z" stroke="#223647" stroke-width="0.2"/>
<path d="M119.367 14.5005L114.179 27.8423C113.101 30.2231 111.588 31.4136 109.642 31.4136C109.095 31.4136 108.638 31.3649 108.271 31.2676V29.1001C108.683 29.2349 109.058 29.3022 109.395 29.3022C110.368 29.3022 111.094 28.8231 111.573 27.8647L112.348 25.978L107.777 14.5005H110.664L113.404 22.856C113.434 22.9608 113.501 23.2378 113.606 23.687H113.662C113.7 23.5148 113.767 23.2453 113.864 22.8784L116.739 14.5005H119.367Z" stroke="#223647" stroke-width="0.2"/>
</mask>
<g mask="url(#mask7_205_344)">
<path d="M119.367 14.5005L114.179 27.8423C113.101 30.2231 111.588 31.4136 109.642 31.4136C109.095 31.4136 108.638 31.3649 108.271 31.2676V29.1001C108.683 29.2349 109.058 29.3022 109.395 29.3022C110.368 29.3022 111.094 28.8231 111.573 27.8647L112.348 25.978L107.777 14.5005H110.664L113.404 22.856C113.434 22.9608 113.501 23.2378 113.606 23.687H113.662C113.7 23.5148 113.767 23.2453 113.864 22.8784L116.739 14.5005H119.367Z" stroke="black" stroke-width="0.2"/>
</g>
<path d="M40 0H0V40H40V0Z" fill="black"/>
<path d="M36.5 3.5H3.5V36.5H36.5V3.5Z" fill="black" stroke="#C4BDB8"/>
<path d="M9 31H29.0338L31 22.7435H30.4022C30.4022 22.7435 28.5353 28.7012 24.6969 29.3815C24.6969 29.3815 22.8299 29.7458 19.4463 29.638C19.4463 29.638 17.7398 29.899 18.0896 27.4534L20.523 11.286C20.523 11.286 20.6907 9.45335 24.1304 9.53543V9H12.6779V9.57711C12.6779 9.57711 15.3632 9.37063 15.1739 11.102C14.9847 12.8333 12.7829 27.2405 12.7829 27.2405C12.7829 27.2405 12.5519 29.4848 11.5874 30.0022C10.6229 30.5197 9.00718 30.4556 9.00718 30.4556L9 31Z" fill="#C4BDB8"/>
</g>
<defs>
<clipPath id="clip0_205_344">
<rect width="120" height="40" fill="white"/>
</clipPath>
</defs>
</svg>
