<svg width="1075" height="664" viewBox="0 0 1075 664" fill="none" xmlns="http://www.w3.org/2000/svg">
<path d="M218.768 359.745C212.146 359.745 205.673 357.817 200.167 354.205C194.661 350.593 190.37 345.459 187.836 339.452C185.302 333.446 184.639 326.836 185.93 320.459C187.222 314.083 190.411 308.225 195.093 303.628C199.776 299.031 205.741 295.9 212.236 294.632C218.731 293.363 225.463 294.014 231.58 296.502C237.698 298.99 242.927 303.204 246.606 308.61C250.285 314.015 252.248 320.371 252.248 326.873C252.248 335.591 248.721 343.952 242.442 350.117C236.163 356.282 227.647 359.745 218.768 359.745Z" fill="#B75C44"/>
<path d="M231.979 323.63H222.071V313.902C222.071 313.042 221.723 312.217 221.104 311.609C220.484 311.001 219.644 310.659 218.768 310.659C217.892 310.659 217.052 311.001 216.433 311.609C215.814 312.217 215.466 313.042 215.466 313.902V323.63H205.558C204.682 323.63 203.842 323.972 203.222 324.58C202.603 325.188 202.255 326.013 202.255 326.873C202.255 327.733 202.603 328.557 203.222 329.166C203.842 329.774 204.682 330.115 205.558 330.115H215.466V339.843C215.466 340.703 215.813 341.528 216.433 342.136C217.052 342.744 217.892 343.086 218.768 343.086C219.644 343.086 220.484 342.744 221.104 342.136C221.723 341.528 222.071 340.703 222.071 339.843V330.115H231.979C232.855 330.115 233.695 329.774 234.314 329.166C234.934 328.557 235.281 327.733 235.281 326.873C235.281 326.013 234.934 325.188 234.314 324.58C233.695 323.972 232.855 323.63 231.979 323.63Z" fill="white"/>
<path d="M102.98 352.427C116.007 352.427 126.568 342.058 126.568 329.268C126.568 316.477 116.007 306.109 102.98 306.109C89.9531 306.109 79.3926 316.477 79.3926 329.268C79.3926 342.058 89.9531 352.427 102.98 352.427Z" fill="#FFB8B8"/>
<path d="M94.4646 466.305C94.1676 466.305 93.8692 466.293 93.5694 466.267C92.0859 466.145 90.6454 465.717 89.3421 465.011C88.0388 464.305 86.9022 463.336 86.0068 462.168C85.1114 461 84.4774 459.66 84.1464 458.235C83.8153 456.81 83.7947 455.333 84.0858 453.899C84.1546 453.566 84.2412 453.237 84.3451 452.913L49.5316 412.487C48.3973 411.159 47.7291 409.508 47.6263 407.778C47.5234 406.048 47.9914 404.332 48.9607 402.883L49.0238 402.808L80.3601 372.47C82.0713 370.816 84.3813 369.897 86.7825 369.914C89.1837 369.932 91.4796 370.885 93.1655 372.564C94.8515 374.242 95.7895 376.51 95.7734 378.867C95.7573 381.225 94.7885 383.48 93.0798 385.136C93.0405 385.175 93.0008 385.212 92.9608 385.25L70.265 406.434L95.1113 445.588C95.5819 445.612 96.0502 445.669 96.5127 445.757C99.0828 446.261 101.371 447.684 102.932 449.751C104.493 451.818 105.216 454.38 104.961 456.941C104.706 459.502 103.49 461.879 101.551 463.609C99.6109 465.34 97.0854 466.301 94.4646 466.305Z" fill="#FFB8B8"/>
<path d="M141.83 651.587H153.605L159.206 606.998L141.828 606.999L141.83 651.587Z" fill="#FFB8B8"/>
<path d="M138.826 647.813L162.013 647.812C163.954 647.812 165.876 648.187 167.669 648.916C169.462 649.645 171.09 650.714 172.463 652.061C173.835 653.408 174.923 655.008 175.666 656.768C176.409 658.528 176.791 660.415 176.791 662.32V662.792L138.827 662.793L138.826 647.813Z" fill="#281F18"/>
<path d="M24.8037 635.604L34.9201 641.518L62.9678 606.02L48.0365 597.292L24.8037 635.604Z" fill="#FFB8B8"/>
<path d="M24.19 630.853L44.113 642.499C47.4803 644.468 49.914 647.669 50.8773 651.399C51.8406 655.129 51.2555 659.082 49.2506 662.388L49.0046 662.793L16.3848 643.724L24.19 630.853Z" fill="#281F18"/>
<path d="M156.382 635.838H143.198C142.13 635.84 141.1 635.453 140.306 634.752C139.513 634.051 139.012 633.086 138.901 632.044L125.609 509.372C125.575 509.063 125.439 508.774 125.222 508.548C125.004 508.323 124.717 508.174 124.405 508.125C124.092 508.076 123.772 508.129 123.494 508.276C123.215 508.423 122.994 508.656 122.863 508.939L98.8851 561.07L56.4328 629.036C55.8833 629.907 55.0326 630.555 54.0364 630.861C53.0402 631.167 51.9652 631.11 51.0082 630.701L34.0488 623.375C33.488 623.133 32.9862 622.776 32.5765 622.329C32.1667 621.881 31.8585 621.354 31.6723 620.78C31.4861 620.207 31.4261 619.602 31.4962 619.004C31.5664 618.407 31.7651 617.831 32.0793 617.314L71.1047 553.156L83.0734 499.1C79.3091 475.657 95.4466 440.805 95.6103 440.455L95.6903 440.285L140.142 423.226L140.365 423.494C157.895 479.978 168.577 540.764 160.69 631.951C160.593 633.008 160.098 633.993 159.301 634.712C158.505 635.43 157.464 635.832 156.382 635.838Z" fill="#281F18"/>
<path d="M93.8993 445.997L93.6922 445.569C93.5933 445.365 83.7092 424.897 76.0898 403.021C74.6254 398.79 74.0719 394.307 74.4641 389.856C74.8564 385.404 76.1859 381.082 78.3685 377.161C80.5795 373.2 83.6043 369.733 87.2513 366.979C90.8982 364.226 95.0879 362.246 99.5548 361.165C107.31 359.34 115.474 360.311 122.561 363.901C129.647 367.492 135.185 373.462 138.164 380.725C144.207 395.564 142.281 411.403 140.469 423.859L140.432 424.108L140.201 424.217L93.8993 445.997Z" fill="#B75C44"/>
<path d="M131.58 316.186H94.126V300.156C102.347 296.949 110.391 294.222 115.254 300.156C119.584 300.156 123.737 301.845 126.799 304.851C129.86 307.857 131.58 311.934 131.58 316.186Z" fill="#281F18"/>
<path d="M92.0528 297.327C69.6618 297.327 63.3945 324.884 63.3945 340.43C63.3945 349.099 67.388 352.2 73.6632 353.25L75.8794 341.645L81.0699 353.749C82.8327 353.758 84.6845 353.724 86.6043 353.689L88.3641 350.131L92.2886 353.625C108.007 353.648 120.711 355.898 120.711 340.43C120.711 324.884 115.214 297.327 92.0528 297.327Z" fill="#281F18"/>
<path d="M191.578 328.168C191.721 328.424 191.852 328.687 191.973 328.958C192.575 330.294 192.884 331.741 192.877 333.203C192.871 334.664 192.55 336.108 191.935 337.439C191.321 338.771 190.427 339.959 189.312 340.928C188.197 341.896 186.886 342.623 185.465 343.059C185.135 343.159 184.799 343.242 184.46 343.308L165.017 392.687C164.375 394.301 163.219 395.668 161.722 396.586C160.225 397.504 158.467 397.924 156.707 397.783L156.61 397.765L114.47 385.309C112.17 384.629 110.239 383.08 109.102 381.002C107.965 378.924 107.715 376.487 108.408 374.229C109.101 371.97 110.679 370.074 112.795 368.958C114.912 367.842 117.393 367.597 119.694 368.277C119.746 368.293 119.799 368.309 119.851 368.325L149.667 377.724L172.751 337.544C172.547 337.127 172.373 336.696 172.23 336.255C171.448 333.799 171.624 331.145 172.723 328.809C173.821 326.473 175.765 324.622 178.177 323.614C180.588 322.606 183.295 322.514 185.771 323.355C188.248 324.197 190.317 325.912 191.578 328.168Z" fill="#FFB8B8"/>
<path d="M196.465 663.88H1.01795C0.747976 663.88 0.489055 663.774 0.298151 663.587C0.107248 663.399 0 663.145 0 662.88C0 662.615 0.107248 662.361 0.298151 662.173C0.489055 661.986 0.747976 661.881 1.01795 661.881H196.465C196.735 661.881 196.994 661.986 197.185 662.173C197.376 662.361 197.483 662.615 197.483 662.88C197.483 663.145 197.376 663.399 197.185 663.587C196.994 663.774 196.735 663.88 196.465 663.88Z" fill="#CCCCCC"/>
<path d="M677.052 61.9168C675.528 61.9419 674.076 62.5538 673.007 63.6206C671.939 64.6874 671.34 66.1237 671.34 67.62C671.34 69.1162 671.939 70.5525 673.007 71.6194C674.076 72.6862 675.528 73.2981 677.052 73.3231H822.693C824.231 73.3454 825.715 72.7683 826.819 71.7184C827.924 70.6684 828.56 69.2312 828.588 67.7218C828.615 66.2123 828.032 64.7537 826.966 63.6657C825.9 62.5776 824.438 61.9488 822.901 61.9171L822.884 61.9168C822.821 61.9157 822.757 61.9157 822.693 61.9168H677.052Z" fill="#3F3D56"/>
<path d="M855.721 60.3287C855.507 60.5391 855.386 60.8246 855.386 61.1222C855.386 61.4198 855.507 61.7053 855.721 61.9157L860.628 66.7335H848.528C848.226 66.7344 847.936 66.853 847.722 67.0634C847.509 67.2738 847.389 67.5587 847.389 67.8558C847.389 68.1529 847.509 68.4378 847.722 68.6482C847.936 68.8585 848.226 68.9772 848.528 68.9781H860.628L855.721 73.7958C855.615 73.9 855.531 74.0237 855.473 74.1599C855.416 74.296 855.386 74.442 855.386 74.5893C855.386 74.7367 855.416 74.8826 855.473 75.0188C855.531 75.155 855.615 75.2787 855.721 75.3829C855.827 75.4871 855.953 75.5698 856.092 75.6262C856.231 75.6826 856.379 75.7116 856.529 75.7116C856.679 75.7116 856.828 75.6826 856.967 75.6262C857.105 75.5698 857.231 75.4871 857.338 75.3829L864.196 68.6494C864.41 68.4389 864.53 68.1535 864.53 67.8558C864.53 67.5582 864.41 67.2727 864.196 67.0622L857.338 60.3287C857.231 60.2245 857.105 60.1418 856.967 60.0854C856.828 60.029 856.679 60 856.529 60C856.379 60 856.231 60.029 856.092 60.0854C855.953 60.1418 855.827 60.2245 855.721 60.3287Z" fill="#E6E6E6"/>
<path d="M643.962 60.3287C644.176 60.5392 644.296 60.8246 644.296 61.1222C644.296 61.4198 644.176 61.7053 643.962 61.9158L639.055 66.7335H651.155C651.305 66.733 651.454 66.7615 651.593 66.8176C651.732 66.8736 651.859 66.9561 651.965 67.0602C652.072 67.1644 652.156 67.2881 652.214 67.4244C652.272 67.5607 652.302 67.7068 652.302 67.8545C652.302 68.0021 652.273 68.1483 652.215 68.2848C652.158 68.4212 652.073 68.5451 651.967 68.6495C651.861 68.7539 651.734 68.8367 651.596 68.893C651.457 68.9494 651.308 68.9783 651.157 68.9781H639.055L643.962 73.7958C644.068 73.9 644.152 74.0237 644.209 74.1599C644.267 74.296 644.296 74.442 644.296 74.5894C644.296 74.7367 644.267 74.8827 644.209 75.0188C644.152 75.155 644.068 75.2787 643.962 75.3829C643.856 75.4871 643.73 75.5698 643.591 75.6262C643.452 75.6826 643.304 75.7116 643.153 75.7116C643.003 75.7116 642.855 75.6826 642.716 75.6262C642.577 75.5698 642.451 75.4872 642.345 75.3829L635.487 68.6494C635.273 68.4389 635.152 68.1535 635.152 67.8558C635.152 67.5582 635.273 67.2727 635.487 67.0623L642.345 60.3287C642.56 60.1183 642.85 60 643.153 60C643.457 60 643.747 60.1183 643.962 60.3287Z" fill="#E6E6E6"/>
<path d="M526.62 120.309H426V187.45H526.62V120.309Z" fill="#F3ECEB"/>
<path d="M663.386 120.309H562.766V187.45H663.386V120.309Z" fill="#F3ECEB"/>
<path d="M800.152 120.309H699.531V187.45H800.152V120.309Z" fill="#F3ECEB"/>
<path d="M936.917 120.309H836.297V187.45H936.917V120.309Z" fill="#F3ECEB"/>
<path d="M1073.68 120.309H973.062V187.45H1073.68V120.309Z" fill="#F3ECEB"/>
<path d="M526.99 238.285H426.369V305.426H526.99V238.285Z" fill="#F3ECEB"/>
<path d="M663.755 238.285H563.135V305.426H663.755V238.285Z" fill="#F3ECEB"/>
<path d="M800.521 238.285H699.9V305.426H800.521V238.285Z" fill="#F3ECEB"/>
<path d="M937.286 238.285H836.666V305.426H937.286V238.285Z" fill="#F3ECEB"/>
<path d="M1074.05 238.285H973.432V305.426H1074.05V238.285Z" fill="#F3ECEB"/>
<path d="M527.359 356.261H426.738V423.402H527.359V356.261Z" fill="#F3ECEB"/>
<path d="M664.124 356.261H563.504V423.402H664.124V356.261Z" fill="#F3ECEB"/>
<path d="M800.89 356.261H700.27V423.402H800.89V356.261Z" fill="#F3ECEB"/>
<path d="M937.656 356.261H837.035V423.402H937.656V356.261Z" fill="#F3ECEB"/>
<path d="M1074.42 356.261H973.801V423.402H1074.42V356.261Z" fill="#F3ECEB"/>
<path d="M720.415 153.88C727.428 153.88 733.114 148.297 733.114 141.411C733.114 134.524 727.428 128.942 720.415 128.942C713.401 128.942 707.715 134.524 707.715 141.411C707.715 148.297 713.401 153.88 720.415 153.88Z" fill="#B75C44"/>
<path d="M581.696 271.856C588.71 271.856 594.395 266.273 594.395 259.387C594.395 252.5 588.71 246.918 581.696 246.918C574.682 246.918 568.996 252.5 568.996 259.387C568.996 266.273 574.682 271.856 581.696 271.856Z" fill="#B75C44"/>
<path d="M720.415 389.832C727.428 389.832 733.114 384.249 733.114 377.363C733.114 370.476 727.428 364.894 720.415 364.894C713.401 364.894 707.715 370.476 707.715 377.363C707.715 384.249 713.401 389.832 720.415 389.832Z" fill="#B75C44"/>
<path d="M860.112 271.856C867.126 271.856 872.811 266.273 872.811 259.387C872.811 252.5 867.126 246.918 860.112 246.918C853.098 246.918 847.412 252.5 847.412 259.387C847.412 266.273 853.098 271.856 860.112 271.856Z" fill="#3F3D56"/>
<path d="M995.9 271.856C1002.91 271.856 1008.6 266.273 1008.6 259.387C1008.6 252.5 1002.91 246.918 995.9 246.918C988.886 246.918 983.2 252.5 983.2 259.387C983.2 266.273 988.886 271.856 995.9 271.856Z" fill="#3F3D56"/>
<path d="M581.696 389.832C588.71 389.832 594.395 384.249 594.395 377.363C594.395 370.476 588.71 364.894 581.696 364.894C574.682 364.894 568.996 370.476 568.996 377.363C568.996 384.249 574.682 389.832 581.696 389.832Z" fill="#3F3D56"/>
<g clip-path="url(#clip0_207_507)">
<path d="M504.321 235.534V22.0389H195.689V235.534H331.634V268.821H285.094V294.073H414.915V268.821H368.376V235.534H504.321ZM216.51 41.552H482.275V214.873H216.51V41.552ZM419.169 141.995L399.459 80.5011H354.473V72.8715C354.473 70.8066 352.27 68.6842 350.005 68.6842C347.802 68.6842 345.537 70.7492 345.537 72.8715V80.5585H300.551L280.842 141.995H280.414H278.21C278.21 155.934 290.268 167.292 305.202 167.292C320.136 167.292 332.194 155.991 332.194 141.995H329.623H329.194L310.588 84.344H345.905V174.06H310.955V186.91H315.422H350.005H384.586H389.054V174.06H354.105V84.344H389.422L370.814 141.995H370.386H367.815C367.815 155.934 379.872 167.292 394.807 167.292C409.741 167.292 421.798 155.991 421.798 141.995H419.595H419.169ZM323.074 141.995H287.33L305.018 86.0646L323.074 141.995ZM376.935 141.995L394.992 86.0657L412.68 141.995H376.935Z" fill="black"/>
</g>
<defs>
<clipPath id="clip0_207_507">
<rect width="313.53" height="293.843" fill="white" transform="translate(193)"/>
</clipPath>
</defs>
</svg>
