<svg width="915" height="836" viewBox="0 0 915 836" fill="none" xmlns="http://www.w3.org/2000/svg">
<path d="M269.77 762.264C558.821 837.61 821.047 663.862 838.943 553.03C856.839 442.198 883.492 77.8502 708.819 54.8543C534.146 31.8583 278.527 302.859 260.631 413.692C242.735 524.524 95.097 739.268 269.77 762.264Z" fill="#B75C44"/>
<path d="M443 628.607C443 763.947 356.866 796 236.528 796C116.19 796 81.2175 792.808 81.2175 657.468C81.2175 522.128 -74.7509 287 45.5873 287C165.926 287 443 493.267 443 628.607Z" fill="#E6C795"/>
<path d="M321.418 496.215C316.26 496.215 311.217 494.713 306.928 491.9C302.639 489.086 299.296 485.086 297.322 480.407C295.348 475.728 294.832 470.579 295.838 465.612C296.844 460.644 299.328 456.082 302.976 452.5C306.624 448.919 311.271 446.48 316.33 445.492C321.389 444.504 326.633 445.011 331.399 446.949C336.165 448.887 340.238 452.17 343.104 456.381C345.97 460.592 347.5 465.543 347.5 470.608C347.5 477.399 344.752 483.913 339.86 488.715C334.969 493.517 328.335 496.215 321.418 496.215Z" fill="#B75C44"/>
<path d="M331.709 468.082H323.991V460.503C323.991 459.834 323.72 459.191 323.238 458.717C322.755 458.244 322.101 457.977 321.419 457.977C320.736 457.977 320.082 458.244 319.599 458.717C319.117 459.191 318.846 459.834 318.846 460.503V468.082H311.127C310.445 468.082 309.791 468.348 309.308 468.821C308.826 469.295 308.555 469.938 308.555 470.608C308.555 471.278 308.826 471.92 309.308 472.394C309.791 472.868 310.445 473.134 311.127 473.134H318.846V480.712C318.846 481.382 319.117 482.024 319.599 482.498C320.082 482.972 320.736 483.238 321.418 483.238C322.101 483.238 322.755 482.972 323.238 482.498C323.72 482.024 323.991 481.382 323.991 480.712V473.134H331.709C332.392 473.134 333.046 472.868 333.529 472.394C334.011 471.92 334.282 471.278 334.282 470.608C334.282 469.938 334.011 469.295 333.529 468.821C333.046 468.348 332.392 468.082 331.709 468.082Z" fill="white"/>
<path d="M231.221 490.514C241.369 490.514 249.596 482.437 249.596 472.473C249.596 462.51 241.369 454.432 231.221 454.432C221.073 454.432 212.847 462.51 212.847 472.473C212.847 482.437 221.073 490.514 231.221 490.514Z" fill="#FFB8B8"/>
<path d="M224.588 579.225C224.356 579.225 224.124 579.215 223.89 579.195C222.735 579.1 221.612 578.767 220.597 578.217C219.582 577.666 218.696 576.912 217.999 576.002C217.301 575.093 216.808 574.049 216.55 572.938C216.292 571.828 216.276 570.677 216.503 569.561C216.556 569.301 216.624 569.045 216.705 568.792L189.585 537.301C188.701 536.266 188.181 534.98 188.101 533.632C188.021 532.285 188.385 530.948 189.14 529.82L189.189 529.761L213.6 506.128C214.933 504.839 216.733 504.123 218.603 504.137C220.474 504.151 222.262 504.893 223.576 506.201C224.889 507.508 225.62 509.275 225.607 511.111C225.595 512.948 224.84 514.704 223.509 515.995C223.478 516.025 223.447 516.054 223.416 516.083L205.736 532.586L225.091 563.086C225.458 563.105 225.823 563.149 226.183 563.218C228.185 563.61 229.967 564.719 231.183 566.329C232.4 567.939 232.963 569.936 232.764 571.931C232.565 573.926 231.618 575.777 230.107 577.125C228.596 578.473 226.629 579.221 224.588 579.225Z" fill="#FFB8B8"/>
<path d="M261.486 723.558H270.658L275.021 688.824L261.484 688.824L261.486 723.558Z" fill="#FFB8B8"/>
<path d="M259.145 720.619L277.207 720.618C278.719 720.618 280.216 720.91 281.613 721.478C283.009 722.046 284.278 722.879 285.347 723.928C286.416 724.977 287.264 726.223 287.842 727.595C288.421 728.966 288.719 730.435 288.719 731.919V732.287L259.145 732.288L259.145 720.619Z" fill="#281F18"/>
<path d="M170.321 711.108L178.202 715.715L200.051 688.062L188.42 681.263L170.321 711.108Z" fill="#FFB8B8"/>
<path d="M169.844 707.407L185.364 716.479C187.987 718.013 189.883 720.507 190.633 723.412C191.384 726.318 190.928 729.397 189.366 731.972L189.174 732.288L163.764 717.434L169.844 707.407Z" fill="#281F18"/>
<path d="M272.82 711.29H262.55C261.718 711.292 260.916 710.99 260.297 710.444C259.679 709.898 259.289 709.147 259.202 708.334L248.848 612.774C248.822 612.533 248.716 612.308 248.547 612.132C248.377 611.957 248.153 611.841 247.91 611.802C247.667 611.764 247.418 611.805 247.201 611.92C246.984 612.035 246.811 612.216 246.709 612.436L228.03 653.046L194.96 705.992C194.532 706.67 193.87 707.175 193.094 707.413C192.318 707.651 191.48 707.607 190.735 707.289L177.523 701.582C177.086 701.393 176.696 701.115 176.376 700.766C176.057 700.418 175.817 700.007 175.672 699.56C175.527 699.114 175.48 698.642 175.535 698.177C175.59 697.711 175.744 697.263 175.989 696.86L206.39 646.882L215.713 604.772C212.781 586.51 225.352 559.36 225.479 559.088L225.542 558.955L260.169 545.667L260.343 545.875C273.999 589.876 282.32 637.228 276.176 708.262C276.1 709.086 275.715 709.853 275.094 710.413C274.474 710.973 273.663 711.286 272.82 711.29Z" fill="#281F18"/>
<path d="M224.146 563.405L223.985 563.072C223.908 562.913 216.208 546.968 210.273 529.927C209.132 526.631 208.701 523.139 209.006 519.671C209.312 516.204 210.348 512.836 212.048 509.782C213.77 506.696 216.127 503.995 218.968 501.85C221.809 499.706 225.072 498.163 228.552 497.321C234.593 495.9 240.953 496.656 246.473 499.453C251.994 502.25 256.307 506.9 258.628 512.558C263.336 524.118 261.836 536.456 260.424 546.159L260.395 546.354L260.215 546.438L224.146 563.405Z" fill="#B75C44"/>
<path d="M253.5 462.282H224.323V449.795C230.727 447.297 236.994 445.173 240.782 449.795C244.155 449.795 247.39 451.111 249.775 453.453C252.16 455.795 253.5 458.971 253.5 462.282Z" fill="#281F18"/>
<path d="M222.709 447.592C205.267 447.592 200.385 469.058 200.385 481.168C200.385 487.922 203.496 490.338 208.384 491.155L210.11 482.115L214.154 491.544C215.527 491.551 216.97 491.525 218.465 491.497L219.836 488.726L222.893 491.448C235.137 491.466 245.034 493.218 245.034 481.168C245.034 469.058 240.752 447.592 222.709 447.592Z" fill="#281F18"/>
<path d="M300.238 471.617C300.349 471.816 300.452 472.021 300.546 472.232C301.015 473.273 301.255 474.4 301.25 475.539C301.245 476.677 300.995 477.802 300.516 478.839C300.038 479.876 299.341 480.802 298.473 481.557C297.604 482.311 296.583 482.877 295.476 483.217C295.219 483.295 294.957 483.36 294.693 483.411L279.547 521.877C279.047 523.134 278.146 524.199 276.98 524.914C275.814 525.629 274.444 525.956 273.074 525.846L272.998 525.832L240.171 516.13C238.379 515.6 236.875 514.393 235.989 512.774C235.104 511.155 234.91 509.257 235.449 507.498C235.989 505.738 237.218 504.262 238.867 503.392C240.515 502.523 242.448 502.332 244.24 502.862C244.281 502.874 244.322 502.886 244.363 502.899L267.59 510.221L285.572 478.92C285.413 478.596 285.277 478.26 285.166 477.916C284.557 476.003 284.694 473.936 285.55 472.116C286.406 470.297 287.92 468.854 289.798 468.069C291.677 467.284 293.785 467.212 295.715 467.868C297.644 468.523 299.256 469.86 300.238 471.617Z" fill="#FFB8B8"/>
<path d="M304.046 733.134H151.793C151.583 733.134 151.381 733.052 151.232 732.906C151.084 732.76 151 732.562 151 732.356C151 732.149 151.084 731.951 151.232 731.805C151.381 731.659 151.583 731.577 151.793 731.577H304.046C304.256 731.577 304.457 731.659 304.606 731.805C304.755 731.951 304.838 732.149 304.838 732.356C304.838 732.562 304.755 732.76 304.606 732.906C304.457 733.052 304.256 733.134 304.046 733.134Z" fill="#CCCCCC"/>
<path d="M657.806 337.113C656.921 337.128 656.077 337.483 655.457 338.103C654.836 338.722 654.488 339.557 654.488 340.426C654.488 341.295 654.836 342.129 655.457 342.748C656.077 343.368 656.921 343.723 657.806 343.738H742.391C743.284 343.751 744.146 343.416 744.787 342.806C745.429 342.196 745.798 341.361 745.814 340.485C745.83 339.608 745.492 338.761 744.873 338.129C744.254 337.497 743.405 337.132 742.512 337.113L742.502 337.113C742.465 337.113 742.428 337.113 742.391 337.113H657.806Z" fill="#3F3D56"/>
<path d="M761.573 336.191C761.448 336.313 761.378 336.479 761.378 336.652C761.378 336.825 761.448 336.99 761.573 337.113L764.422 339.911H757.395C757.22 339.911 757.051 339.98 756.927 340.102C756.803 340.224 756.733 340.39 756.733 340.562C756.733 340.735 756.803 340.9 756.927 341.023C757.051 341.145 757.22 341.214 757.395 341.214H764.422L761.573 344.012C761.511 344.073 761.462 344.145 761.429 344.224C761.395 344.303 761.378 344.388 761.378 344.473C761.378 344.559 761.395 344.644 761.429 344.723C761.462 344.802 761.511 344.874 761.573 344.934C761.634 344.995 761.708 345.043 761.788 345.075C761.869 345.108 761.955 345.125 762.042 345.125C762.129 345.125 762.216 345.108 762.296 345.075C762.377 345.043 762.45 344.995 762.512 344.934L766.495 341.023C766.619 340.901 766.689 340.735 766.689 340.562C766.689 340.39 766.619 340.224 766.495 340.102L762.512 336.191C762.45 336.13 762.377 336.082 762.296 336.05C762.216 336.017 762.129 336 762.042 336C761.955 336 761.869 336.017 761.788 336.05C761.708 336.082 761.634 336.13 761.573 336.191Z" fill="#E6E6E6"/>
<path d="M638.587 336.191C638.711 336.313 638.781 336.479 638.781 336.652C638.781 336.825 638.712 336.99 638.587 337.113L635.737 339.911H642.764C642.852 339.91 642.938 339.927 643.019 339.96C643.1 339.992 643.173 340.04 643.235 340.1C643.297 340.161 643.346 340.233 643.38 340.312C643.413 340.391 643.431 340.476 643.431 340.562C643.431 340.647 643.414 340.732 643.38 340.812C643.347 340.891 643.298 340.963 643.236 341.023C643.175 341.084 643.101 341.132 643.021 341.165C642.94 341.198 642.853 341.214 642.766 341.214H635.737L638.587 344.012C638.649 344.073 638.697 344.145 638.731 344.224C638.764 344.303 638.781 344.388 638.781 344.473C638.781 344.559 638.764 344.644 638.731 344.723C638.698 344.802 638.649 344.874 638.587 344.934C638.525 344.995 638.452 345.043 638.372 345.075C638.291 345.108 638.205 345.125 638.118 345.125C638.03 345.125 637.944 345.108 637.864 345.075C637.783 345.043 637.71 344.995 637.648 344.934L633.665 341.023C633.541 340.901 633.471 340.735 633.471 340.562C633.471 340.39 633.541 340.224 633.665 340.102L637.648 336.191C637.773 336.069 637.941 336 638.118 336C638.294 336 638.462 336.069 638.587 336.191Z" fill="#E6E6E6"/>
<path d="M570.438 371.026H512V410.02H570.438V371.026Z" fill="#F3ECEB"/>
<path d="M649.869 371.026H591.431V410.02H649.869V371.026Z" fill="#F3ECEB"/>
<path d="M729.299 371.026H670.861V410.02H729.299V371.026Z" fill="#F3ECEB"/>
<path d="M808.729 371.026H750.291V410.02H808.729V371.026Z" fill="#F3ECEB"/>
<path d="M888.16 371.026H829.722V410.02H888.16V371.026Z" fill="#F3ECEB"/>
<path d="M570.653 439.544H512.215V478.538H570.653V439.544Z" fill="#F3ECEB"/>
<path d="M650.083 439.544H591.645V478.538H650.083V439.544Z" fill="#F3ECEB"/>
<path d="M729.513 439.544H671.075V478.538H729.513V439.544Z" fill="#F3ECEB"/>
<path d="M808.944 439.544H750.506V478.538H808.944V439.544Z" fill="#F3ECEB"/>
<path d="M888.375 439.544H829.937V478.538H888.375V439.544Z" fill="#F3ECEB"/>
<path d="M570.867 508.062H512.429V547.056H570.867V508.062Z" fill="#F3ECEB"/>
<path d="M650.297 508.062H591.859V547.056H650.297V508.062Z" fill="#F3ECEB"/>
<path d="M729.728 508.062H671.29V547.056H729.728V508.062Z" fill="#F3ECEB"/>
<path d="M809.159 508.062H750.721V547.056H809.159V508.062Z" fill="#F3ECEB"/>
<path d="M888.588 508.062H830.15V547.056H888.588V508.062Z" fill="#F3ECEB"/>
<path d="M682.99 390.523C687.063 390.523 690.366 387.281 690.366 383.282C690.366 379.282 687.063 376.04 682.99 376.04C678.916 376.04 675.614 379.282 675.614 383.282C675.614 387.281 678.916 390.523 682.99 390.523Z" fill="#B75C44"/>
<path d="M602.425 459.041C606.498 459.041 609.8 455.799 609.8 451.799C609.8 447.8 606.498 444.558 602.425 444.558C598.351 444.558 595.049 447.8 595.049 451.799C595.049 455.799 598.351 459.041 602.425 459.041Z" fill="#B75C44"/>
<path d="M682.99 527.559C687.063 527.559 690.366 524.317 690.366 520.317C690.366 516.318 687.063 513.075 682.99 513.075C678.916 513.075 675.614 516.318 675.614 520.317C675.614 524.317 678.916 527.559 682.99 527.559Z" fill="#B75C44"/>
<path d="M764.123 459.041C768.196 459.041 771.498 455.799 771.498 451.799C771.498 447.8 768.196 444.558 764.123 444.558C760.049 444.558 756.747 447.8 756.747 451.799C756.747 455.799 760.049 459.041 764.123 459.041Z" fill="#3F3D56"/>
<path d="M842.985 459.041C847.059 459.041 850.361 455.799 850.361 451.799C850.361 447.8 847.059 444.558 842.985 444.558C838.912 444.558 835.609 447.8 835.609 451.799C835.609 455.799 838.912 459.041 842.985 459.041Z" fill="#3F3D56"/>
<path d="M602.425 527.559C606.498 527.559 609.8 524.317 609.8 520.317C609.8 516.318 606.498 513.075 602.425 513.075C598.351 513.075 595.049 516.318 595.049 520.317C595.049 524.317 598.351 527.559 602.425 527.559Z" fill="#3F3D56"/>
<g clip-path="url(#clip0_209_566)">
<path d="M499.808 437.793V313.8H320.562V437.793H399.515V457.126H372.486V471.791H447.883V457.126H420.854V437.793H499.808ZM332.654 325.133H487.004V425.794H332.654V325.133ZM450.354 383.467L438.907 347.753H412.779V343.322C412.779 342.123 411.5 340.89 410.185 340.89C408.905 340.89 407.59 342.09 407.59 343.322V347.787H381.463L370.016 383.467H369.767H368.488C368.488 391.563 375.491 398.159 384.164 398.159C392.838 398.159 399.84 391.596 399.84 383.467H398.347H398.098L387.292 349.985H407.803V402.09H387.505V409.553H390.1H410.185H430.269H432.864V402.09H412.566V349.985H433.077L422.27 383.467H422.021H420.528C420.528 391.563 427.531 398.159 436.204 398.159C444.878 398.159 451.881 391.596 451.881 383.467H450.601H450.354ZM394.544 383.467H373.784L384.057 350.984L394.544 383.467ZM425.825 383.467L436.312 350.985L446.585 383.467H425.825Z" fill="black"/>
</g>
<defs>
<clipPath id="clip0_209_566">
<rect width="182.091" height="170.658" fill="white" transform="translate(319 301)"/>
</clipPath>
</defs>
</svg>
