<svg width="542" height="531" viewBox="0 0 542 531" fill="none" xmlns="http://www.w3.org/2000/svg">
<path d="M331.072 40.2172C448.386 53.9165 473.622 124.415 503.669 267.271C509.958 393.597 332.267 508.461 216.088 489.861C99.9089 471.261 -3.3661 475.219 19.9979 344.485C43.3619 213.751 179.479 55.3584 331.072 40.2172Z" fill="#C4BDB8"/>
<path d="M251.5 493C371.07 493 468 396.07 468 276.5C468 156.93 371.07 60 251.5 60C131.93 60 35 156.93 35 276.5C35 396.07 131.93 493 251.5 493Z" fill="#B75C44"/>
<path d="M183.419 229.165C187.409 270.469 214.124 297.748 252.006 297.748C289.886 297.748 316.598 270.468 320.589 229.165L326.244 184.539C329.753 140.696 293.976 109 252.006 109C210.034 109 174.257 140.696 177.763 184.539L183.419 229.165Z" fill="black"/>
<path d="M398.713 408.185L396.006 390.945C393.738 376.489 384.653 364.011 371.597 357.413L314.621 328.601C312.838 327.699 311.385 326.34 310.168 324.822C293.674 342.262 273.635 352.519 252.005 352.519C230.376 352.519 210.334 342.262 193.84 324.822C192.623 326.34 191.171 327.699 189.387 328.601L132.412 357.413C119.355 364.011 110.271 376.489 108.003 390.945L105.294 408.185C104.329 414.339 105.603 423.37 111.116 427.885C118.486 433.913 145.713 471.503 252.005 471.503C358.296 471.503 385.521 433.913 392.891 427.885C398.406 423.37 399.678 414.339 398.713 408.185Z" fill="black"/>
<path d="M366.2 481.965C390.671 477.628 410.551 448.565 406.213 424.093C401.875 399.622 369.934 403.611 345.463 407.949C320.991 412.287 314.516 433.896 318.854 458.367C323.192 482.838 341.729 486.303 366.2 481.965Z" fill="#E6C795"/>
</svg>
