<svg width="410" height="436" viewBox="0 0 410 436" fill="none" xmlns="http://www.w3.org/2000/svg">
<path d="M250.499 64.4296C339.262 74.7948 358.357 128.136 381.091 236.225C385.85 331.807 251.403 418.717 163.499 404.644C75.5941 390.57 -2.54689 393.565 15.131 294.647C32.8089 195.73 135.799 75.8858 250.499 64.4296Z" fill="#B75C44"/>
<path d="M119.419 120.165C123.409 161.469 150.124 188.748 188.006 188.748C225.886 188.748 252.598 161.468 256.589 120.165L262.244 75.5395C265.753 31.6964 229.976 0 188.006 0C146.034 0 110.257 31.6964 113.763 75.5395L119.419 120.165Z" fill="black"/>
<path d="M334.713 299.185L332.006 281.945C329.738 267.489 320.653 255.011 307.597 248.413L250.621 219.601C248.838 218.699 247.385 217.34 246.168 215.822C229.674 233.262 209.635 243.519 188.005 243.519C166.376 243.519 146.334 233.262 129.84 215.822C128.623 217.34 127.171 218.699 125.387 219.601L68.4121 248.413C55.3549 255.011 46.271 267.489 44.0033 281.945L41.2944 299.185C40.3294 305.339 41.6031 314.37 47.1157 318.885C54.4861 324.913 81.7128 362.503 188.005 362.503C294.296 362.503 321.521 324.913 328.891 318.885C334.406 314.37 335.678 305.339 334.713 299.185Z" fill="black"/>
<path d="M286.2 400.965C310.671 396.628 330.551 367.565 326.213 343.093C321.875 318.622 289.934 322.611 265.463 326.949C240.991 331.287 234.516 352.896 238.854 377.367C243.192 401.838 261.729 405.303 286.2 400.965Z" fill="#E6C795"/>
</svg>
