<svg width="972" height="782" viewBox="0 0 972 782" fill="none" xmlns="http://www.w3.org/2000/svg">
<g clip-path="url(#clip0_206_463)">
<path d="M964.359 452.963H222.536C220.628 452.961 218.799 452.202 217.449 450.852C216.1 449.503 215.341 447.673 215.339 445.765V7.1975C215.341 5.28924 216.1 3.45974 217.449 2.1104C218.799 0.761056 220.628 0.00208314 222.536 0H964.359C966.267 0.00208314 968.096 0.761059 969.446 2.1104C970.795 3.45974 971.554 5.28924 971.556 7.1975V445.765C971.554 447.673 970.795 449.503 969.446 450.852C968.096 452.202 966.267 452.961 964.359 452.963ZM222.536 2.879C221.391 2.88025 220.294 3.33563 219.484 4.14524C218.674 4.95484 218.219 6.05254 218.218 7.1975V445.765C218.219 446.91 218.674 448.008 219.484 448.817C220.294 449.627 221.391 450.082 222.536 450.084H964.359C965.503 450.082 966.601 449.627 967.411 448.817C968.22 448.008 968.676 446.91 968.677 445.765V7.1975C968.676 6.05255 968.22 4.95485 967.411 4.14524C966.601 3.33564 965.503 2.88025 964.359 2.879H222.536Z" fill="#E6E6E6"/>
<path d="M521.942 35.0263C520.445 35.0513 519.018 35.6635 517.968 36.7309C516.918 37.7983 516.33 39.2354 516.33 40.7325C516.33 42.2295 516.918 43.6666 517.968 44.734C519.018 45.8014 520.445 46.4136 521.942 46.4387H665.014C666.524 46.4609 667.982 45.8836 669.067 44.8331C670.153 43.7825 670.777 42.3446 670.804 40.8343C670.831 39.324 670.259 37.8647 669.211 36.776C668.164 35.6874 666.728 35.0583 665.218 35.0265L665.201 35.0263C665.139 35.0252 665.077 35.0252 665.014 35.0263H521.942Z" fill="#3F3D56"/>
<path d="M697.459 33.4374C697.249 33.6479 697.131 33.9335 697.131 34.2313C697.131 34.5291 697.249 34.8147 697.459 35.0253L702.28 39.8456H690.393C690.096 39.8465 689.811 39.9652 689.602 40.1757C689.392 40.3862 689.274 40.6713 689.274 40.9685C689.274 41.2657 689.392 41.5508 689.602 41.7613C689.811 41.9718 690.096 42.0905 690.393 42.0914H702.28L697.459 46.9117C697.355 47.0159 697.272 47.1397 697.216 47.2759C697.16 47.4122 697.131 47.5582 697.131 47.7056C697.131 47.8531 697.16 47.9991 697.216 48.1353C697.272 48.2716 697.355 48.3954 697.459 48.4996C697.564 48.6039 697.687 48.6866 697.824 48.743C697.96 48.7995 698.106 48.8285 698.253 48.8285C698.401 48.8285 698.547 48.7995 698.683 48.7431C698.819 48.6866 698.943 48.6039 699.047 48.4997L705.785 41.7625C705.995 41.5519 706.113 41.2663 706.113 40.9685C706.113 40.6707 705.995 40.3851 705.785 40.1745L699.047 33.4374C698.943 33.3331 698.819 33.2504 698.683 33.194C698.547 33.1376 698.401 33.1085 698.253 33.1085C698.106 33.1085 697.96 33.1376 697.824 33.194C697.688 33.2504 697.564 33.3331 697.459 33.4374Z" fill="#E6E6E6"/>
<path d="M489.436 33.4374C489.646 33.648 489.765 33.9335 489.765 34.2313C489.765 34.5291 489.646 34.8147 489.436 35.0253L484.615 39.8457H496.502C496.649 39.8451 496.796 39.8737 496.932 39.9297C497.069 39.9858 497.193 40.0683 497.298 40.1725C497.403 40.2767 497.486 40.4005 497.543 40.5369C497.599 40.6733 497.629 40.8195 497.629 40.9672C497.629 41.1149 497.6 41.2612 497.544 41.3977C497.487 41.5342 497.404 41.6582 497.3 41.7627C497.195 41.8671 497.071 41.9499 496.935 42.0063C496.798 42.0627 496.652 42.0916 496.504 42.0914H484.615L489.436 46.9117C489.54 47.016 489.623 47.1397 489.679 47.276C489.736 47.4122 489.765 47.5582 489.765 47.7057C489.765 47.8531 489.736 47.9991 489.679 48.1354C489.623 48.2716 489.54 48.3954 489.436 48.4997C489.331 48.6039 489.208 48.6866 489.071 48.7431C488.935 48.7995 488.789 48.8286 488.642 48.8286C488.494 48.8286 488.348 48.7995 488.212 48.7431C488.076 48.6867 487.952 48.604 487.848 48.4997L481.111 41.7626C480.9 41.552 480.782 41.2664 480.782 40.9686C480.782 40.6707 480.9 40.3851 481.111 40.1745L487.848 33.4374C488.058 33.2268 488.344 33.1085 488.642 33.1085C488.939 33.1085 489.225 33.2268 489.436 33.4374Z" fill="#E6E6E6"/>
<path d="M214.91 477.12C208.405 477.12 202.046 475.191 196.637 471.577C191.228 467.963 187.013 462.827 184.523 456.817C182.034 450.807 181.382 444.194 182.652 437.814C183.921 431.434 187.053 425.573 191.653 420.973C196.253 416.374 202.113 413.241 208.493 411.972C214.873 410.703 221.486 411.354 227.496 413.844C233.506 416.333 238.643 420.549 242.257 425.957C245.871 431.366 247.8 437.725 247.8 444.23C247.8 452.953 244.335 461.319 238.167 467.487C231.998 473.655 223.633 477.12 214.91 477.12Z" fill="#B75C44"/>
<path d="M227.887 440.986H218.154V431.253C218.154 430.392 217.812 429.567 217.204 428.958C216.595 428.35 215.77 428.008 214.91 428.008C214.049 428.008 213.224 428.35 212.615 428.958C212.007 429.567 211.665 430.392 211.665 431.253V440.986H201.932C201.071 440.986 200.246 441.328 199.638 441.936C199.029 442.545 198.688 443.37 198.688 444.23C198.688 445.091 199.029 445.916 199.638 446.524C200.246 447.133 201.071 447.475 201.932 447.475H211.665V457.208C211.665 458.068 212.007 458.894 212.615 459.502C213.224 460.111 214.049 460.452 214.91 460.452C215.77 460.452 216.595 460.111 217.204 459.502C217.812 458.894 218.154 458.068 218.154 457.208V447.475H227.887C228.748 447.475 229.573 447.133 230.181 446.524C230.79 445.916 231.132 445.091 231.132 444.23C231.132 443.37 230.79 442.545 230.181 441.936C229.573 441.328 228.748 440.986 227.887 440.986Z" fill="white"/>
<path d="M374.164 93.45H275.318V160.627H374.164V93.45Z" fill="#F3ECEB"/>
<path d="M508.517 93.45H409.671V160.627H508.517V93.45Z" fill="#F3ECEB"/>
<path d="M642.871 93.45H544.025V160.627H642.871V93.45Z" fill="#F3ECEB"/>
<path d="M777.224 93.45H678.378V160.627H777.224V93.45Z" fill="#F3ECEB"/>
<path d="M911.577 93.45H812.731V160.627H911.577V93.45Z" fill="#F3ECEB"/>
<path d="M374.526 211.489H275.681V278.666H374.526V211.489Z" fill="#F3ECEB"/>
<path d="M508.879 211.489H410.034V278.666H508.879V211.489Z" fill="#F3ECEB"/>
<path d="M643.233 211.489H544.387V278.666H643.233V211.489Z" fill="#F3ECEB"/>
<path d="M777.586 211.489H678.741V278.666H777.586V211.489Z" fill="#F3ECEB"/>
<path d="M911.939 211.489H813.094V278.666H911.939V211.489Z" fill="#F3ECEB"/>
<path d="M374.889 329.528H276.043V396.705H374.889V329.528Z" fill="#F3ECEB"/>
<path d="M509.242 329.528H410.396V396.705H509.242V329.528Z" fill="#F3ECEB"/>
<path d="M643.595 329.528H544.75V396.705H643.595V329.528Z" fill="#F3ECEB"/>
<path d="M777.949 329.528H679.103V396.705H777.949V329.528Z" fill="#F3ECEB"/>
<path d="M912.302 329.528H813.456V396.705H912.302V329.528Z" fill="#F3ECEB"/>
<path d="M564.54 127.038C571.43 127.038 577.016 121.453 577.016 114.563C577.016 107.673 571.43 102.087 564.54 102.087C557.65 102.087 552.064 107.673 552.064 114.563C552.064 121.453 557.65 127.038 564.54 127.038Z" fill="#B75C44"/>
<path d="M428.268 245.077C435.158 245.077 440.743 239.492 440.743 232.602C440.743 225.712 435.158 220.126 428.268 220.126C421.378 220.126 415.792 225.712 415.792 232.602C415.792 239.492 421.378 245.077 428.268 245.077Z" fill="#B75C44"/>
<path d="M564.54 363.116C571.43 363.116 577.016 357.531 577.016 350.641C577.016 343.75 571.43 338.165 564.54 338.165C557.65 338.165 552.064 343.75 552.064 350.641C552.064 357.531 557.65 363.116 564.54 363.116Z" fill="#B75C44"/>
<path d="M701.773 245.077C708.663 245.077 714.248 239.492 714.248 232.602C714.248 225.712 708.663 220.126 701.773 220.126C694.882 220.126 689.297 225.712 689.297 232.602C689.297 239.492 694.882 245.077 701.773 245.077Z" fill="#3F3D56"/>
<path d="M835.166 245.077C842.056 245.077 847.642 239.492 847.642 232.602C847.642 225.712 842.056 220.126 835.166 220.126C828.276 220.126 822.69 225.712 822.69 232.602C822.69 239.492 828.276 245.077 835.166 245.077Z" fill="#3F3D56"/>
<path d="M428.268 363.116C435.158 363.116 440.743 357.531 440.743 350.641C440.743 343.75 435.158 338.165 428.268 338.165C421.378 338.165 415.792 343.75 415.792 350.641C415.792 357.531 421.378 363.116 428.268 363.116Z" fill="#3F3D56"/>
<path d="M101.165 469.798C113.962 469.798 124.336 459.424 124.336 446.627C124.336 433.829 113.962 423.455 101.165 423.455C88.3675 423.455 77.9932 433.829 77.9932 446.627C77.9932 459.424 88.3675 469.798 101.165 469.798Z" fill="#FFB8B8"/>
<path d="M92.7984 583.738C92.5066 583.738 92.2134 583.725 91.919 583.699C90.4617 583.577 89.0465 583.149 87.7662 582.442C86.4859 581.736 85.3694 580.766 84.4898 579.598C83.6102 578.43 82.9874 577.089 82.6621 575.663C82.3369 574.237 82.3167 572.759 82.6026 571.325C82.6702 570.992 82.7553 570.662 82.8574 570.338L48.6579 529.89C47.5436 528.562 46.8872 526.91 46.7862 525.179C46.6851 523.448 47.1448 521.731 48.0971 520.282L48.1591 520.206L78.9427 489.852C80.6236 488.197 82.8929 487.278 85.2518 487.295C87.6107 487.313 89.8661 488.266 91.5222 489.946C93.1784 491.625 94.0999 493.894 94.0841 496.253C94.0683 498.612 93.1165 500.868 91.438 502.525C91.3994 502.563 91.3604 502.601 91.3211 502.638L69.0256 523.834L93.4337 563.009C93.896 563.033 94.356 563.09 94.8103 563.178C97.3351 563.682 99.5826 565.106 101.116 567.174C102.65 569.242 103.36 571.806 103.11 574.369C102.859 576.931 101.665 579.309 99.7594 581.04C97.8539 582.771 95.373 583.733 92.7984 583.738Z" fill="#FFB8B8"/>
<path d="M139.328 769.118H150.895L156.397 724.505L139.326 724.506L139.328 769.118Z" fill="#FFB8B8"/>
<path d="M136.378 765.342L159.156 765.341C161.062 765.341 162.951 765.717 164.712 766.446C166.473 767.176 168.073 768.245 169.421 769.593C170.769 770.94 171.838 772.541 172.568 774.302C173.297 776.063 173.673 777.95 173.673 779.857V780.329L136.379 780.33L136.378 765.342Z" fill="#281F18"/>
<path d="M24.3662 753.127L34.3042 759.044L61.8572 723.527L47.1892 714.794L24.3662 753.127Z" fill="#FFB8B8"/>
<path d="M23.7628 748.373L43.3344 760.026C46.6423 761.995 49.033 765.199 49.9794 768.93C50.9257 772.662 50.3509 776.617 48.3813 779.925L48.1397 780.33L16.0952 761.251L23.7628 748.373Z" fill="#281F18"/>
<path d="M153.624 753.361H140.672C139.623 753.363 138.611 752.975 137.831 752.274C137.052 751.573 136.56 750.607 136.451 749.564L123.393 626.827C123.36 626.518 123.227 626.228 123.013 626.003C122.799 625.778 122.517 625.629 122.21 625.579C121.904 625.53 121.589 625.583 121.315 625.73C121.042 625.878 120.824 626.111 120.696 626.394L97.1408 678.553L55.4373 746.555C54.8975 747.427 54.0618 748.075 53.0832 748.381C52.1045 748.687 51.0485 748.63 50.1083 748.221L33.4481 740.891C32.8972 740.649 32.4042 740.292 32.0017 739.844C31.5992 739.397 31.2965 738.869 31.1135 738.295C30.9306 737.722 30.8716 737.116 30.9405 736.518C31.0095 735.92 31.2047 735.344 31.5133 734.827L69.8504 670.635L81.608 616.55C77.9101 593.095 93.763 558.224 93.9238 557.873L94.0023 557.703L137.67 540.635L137.889 540.904C155.11 597.417 165.604 658.236 157.856 749.471C157.76 750.53 157.274 751.515 156.491 752.234C155.709 752.953 154.686 753.355 153.624 753.361Z" fill="#281F18"/>
<path d="M92.2433 563.418L92.0399 562.99C91.9427 562.786 82.2329 542.307 74.7479 520.419C73.3094 516.186 72.7656 511.701 73.1509 507.247C73.5363 502.793 74.8424 498.468 76.9865 494.545C79.1585 490.582 82.1299 487.113 85.7125 484.358C89.2952 481.603 93.411 479.622 97.7991 478.541C105.417 476.715 113.438 477.687 120.399 481.279C127.361 484.871 132.8 490.844 135.727 498.111C141.664 512.958 139.772 528.805 137.991 541.268L137.956 541.518L137.729 541.627L92.2433 563.418Z" fill="#B75C44"/>
<path d="M129.26 433.537H92.4658V417.499C100.542 414.291 108.444 411.562 113.221 417.499C117.475 417.499 121.554 419.189 124.562 422.197C127.57 425.205 129.26 429.284 129.26 433.537Z" fill="#281F18"/>
<path d="M90.4287 414.669C68.4326 414.669 62.2759 442.24 62.2759 457.794C62.2759 466.469 66.1989 469.571 72.3634 470.621L74.5405 459.01L79.6395 471.121C81.3712 471.13 83.1903 471.096 85.0762 471.061L86.8051 467.501L90.6603 470.997C106.101 471.02 118.581 473.271 118.581 457.794C118.581 442.24 113.182 414.669 90.4287 414.669Z" fill="#281F18"/>
<path d="M188.199 445.526C188.339 445.782 188.468 446.046 188.587 446.317C189.179 447.654 189.482 449.101 189.475 450.564C189.469 452.026 189.154 453.47 188.55 454.803C187.946 456.135 187.068 457.324 185.973 458.293C184.878 459.262 183.59 459.989 182.194 460.425C181.87 460.526 181.54 460.609 181.206 460.675L162.107 510.08C161.475 511.694 160.34 513.063 158.87 513.981C157.399 514.9 155.672 515.319 153.944 515.178L153.848 515.16L112.451 502.698C110.191 502.018 108.294 500.467 107.177 498.388C106.061 496.309 105.816 493.872 106.496 491.612C107.177 489.352 108.727 487.455 110.806 486.338C112.885 485.222 115.323 484.976 117.582 485.657C117.634 485.673 117.686 485.689 117.737 485.705L147.027 495.109L169.704 454.907C169.503 454.49 169.332 454.059 169.192 453.618C168.424 451.16 168.597 448.505 169.676 446.168C170.756 443.831 172.665 441.978 175.034 440.97C177.403 439.961 180.062 439.869 182.495 440.711C184.928 441.553 186.961 443.269 188.199 445.526Z" fill="#FFB8B8"/>
<path d="M193 781.417H1C0.734784 781.417 0.480429 781.312 0.292892 781.124C0.105356 780.937 0 780.682 0 780.417C0 780.152 0.105356 779.898 0.292892 779.71C0.480429 779.523 0.734784 779.417 1 779.417H193C193.265 779.417 193.52 779.523 193.707 779.71C193.895 779.898 194 780.152 194 780.417C194 780.682 193.895 780.937 193.707 781.124C193.52 781.312 193.265 781.417 193 781.417Z" fill="#CCCCCC"/>
</g>
<defs>
<clipPath id="clip0_206_463">
<rect width="971.556" height="781.417" fill="white"/>
</clipPath>
</defs>
</svg>
